<?xml version="1.0" encoding="UTF-8"?>
  <svg width="800" height="816" viewBox="0 0 800 816" xmlns="http://www.w3.org/2000/svg">
    <rect width="100%" height="100%" fill="#ffffff"/>
    <path d="                                                                                                                                                                                                                                                                                                                                                                                                                                                                M384 81.17L385.08 81.17L385.08 67.17L384 67.17Z M392 81.17L393.08 81.17L393.08 67.17L392 67.17Z M400 81.17L401.08 81.17L401.08 67.17L400 67.17Z M408 81.17L409.08 81.17L409.08 67.17L408 67.17Z                                                                                         M320 97.17L321.08 97.17L321.08 83.17L320 83.17Z M328 97.17L331.25 97.17L331.25 83.17L328 83.17Z M336 97.17L340.33 97.17L340.33 83.17L336 83.17Z M344 97.17L348.33 97.17L348.33 83.17L344 83.17Z M352 97.17L356.33 97.17L356.33 83.17L352 83.17Z M360 97.17L364.33 97.17L364.33 83.17L360 83.17Z M368 97.17L372.33 97.17L372.33 83.17L368 83.17Z M376 97.17L380.33 97.17L380.33 83.17L376 83.17Z M384 97.17L388.33 97.17L388.33 83.17L384 83.17Z M392 97.17L395.25 97.17L395.25 83.17L392 83.17Z M400 97.17L403.25 97.17L403.25 83.17L400 83.17Z M408 97.17L412.33 97.17L412.33 83.17L408 83.17Z M416 97.17L420.33 97.17L420.33 83.17L416 83.17Z M424 97.17L429.41 97.17L429.41 83.17L424 83.17Z M432 97.17L440.65 97.17L440.65 93.67L432 93.67Z M440 97.17L448.65 97.17L448.65 93.67L440 93.67Z M448 97.17L456.65 97.17L456.65 95.42L448 95.42Z M456 97.17L464.65 97.17L464.65 95.42L456 95.42Z M464 97.17L470.49 97.17L470.49 83.17L464 83.17Z M472 97.17L475.25 97.17L475.25 83.17L472 83.17Z M480 97.17L481.08 97.17L481.08 83.17L480 83.17Z                                                                             M296 113.17L299.25 113.17L299.25 99.17L296 99.17Z M304 113.17L309.41 113.17L309.41 99.17L304 99.17Z M312 113.17L316.33 113.17L316.33 99.17L312 99.17Z M320 113.17L324.33 113.17L324.33 99.17L320 99.17Z M328 113.17L330.17 113.17L330.17 99.17L328 99.17Z             M432 113.17L433.08 113.17L433.08 99.17L432 99.17Z M440 113.17L448.65 113.17L448.65 111.42L440 111.42Z M448 113.17L456.65 113.17L456.65 100.92L448 100.92Z M456 113.17L464.65 113.17L464.65 99.17L456 99.17Z M464 113.17L472.65 113.17L472.65 99.17L464 99.17Z M472 113.17L480.65 113.17L480.65 99.17L472 99.17Z M480 113.17L488.65 113.17L488.65 100.92L480 100.92Z M488 113.17L496.65 113.17L496.65 106.17L488 106.17Z M496 113.17L503.57 113.17L503.57 99.17L496 99.17Z M504 113.17L506.17 113.17L506.17 99.17L504 99.17Z                                                                       M272 129.17L273.08 129.17L273.08 115.17L272 115.17Z M280 129.17L285.41 129.17L285.41 115.17L280 115.17Z M288 129.17L293.41 129.17L293.41 115.17L288 115.17Z M296 129.17L298.17 129.17L298.17 115.17L296 115.17Z                   M448 129.17L450.17 129.17L450.17 115.17L448 115.17Z M456 129.17L464.65 129.17L464.65 120.42L456 120.42Z M464 129.17L472.65 129.17L472.65 115.17L464 115.17Z M472 129.17L480.65 129.17L480.65 115.17L472 115.17Z M480 129.17L488.65 129.17L488.65 115.17L480 115.17Z M488 129.17L496.65 129.17L496.65 115.17L488 115.17Z M496 129.17L504.65 129.17L504.65 115.17L496 115.17Z M504 129.17L512.65 129.17L512.65 115.17L504 115.17Z M512 129.17L520.65 129.17L520.65 120.42L512 120.42Z M520 129.17L525.41 129.17L525.41 115.17L520 115.17Z M528 129.17L529.08 129.17L529.08 115.17L528 115.17Z                                                                  M256 145.17L257.08 145.17L257.08 131.17L256 131.17Z M264 145.17L269.41 145.17L269.41 131.17L264 131.17Z M272 145.17L277.41 145.17L277.41 131.17L272 131.17Z M280 145.17L281.08 145.17L281.08 131.17L280 131.17Z                      M456 145.17L457.08 145.17L457.08 131.17L456 131.17Z M464 145.17L472.65 145.17L472.65 138.17L464 138.17Z M472 145.17L480.65 145.17L480.65 131.17L472 131.17Z M480 145.17L488.65 145.17L488.65 131.17L480 131.17Z M488 145.17L496.65 145.17L496.65 131.17L488 131.17Z M496 145.17L504.65 145.17L504.65 131.17L496 131.17Z M504 145.17L512.65 145.17L512.65 131.17L504 131.17Z M512 145.17L520.65 145.17L520.65 131.17L512 131.17Z M520 145.17L528.65 145.17L528.65 131.17L520 131.17Z M528 145.17L536.65 145.17L536.65 134.67L528 134.67Z M536 145.17L541.41 145.17L541.41 131.17L536 131.17Z                                                                M248 161.17L250.17 161.17L250.17 147.17L248 147.17Z M256 161.17L263.57 161.17L263.57 147.17L256 147.17Z M264 161.17L266.17 161.17L266.17 147.17L264 147.17Z                      M440 161.17L442.17 161.17L442.17 147.17L440 147.17Z M448 161.17L449.08 161.17L449.08 147.17L448 147.17Z M456 161.17L458.17 161.17L458.17 147.17L456 147.17Z M464 161.17L468.33 161.17L468.33 147.17L464 147.17Z M472 161.17L480.65 161.17L480.65 147.17L472 147.17Z M480 161.17L488.65 161.17L488.65 147.17L480 147.17Z M488 161.17L496.65 161.17L496.65 147.17L488 147.17Z M496 161.17L504.65 161.17L504.65 147.17L496 147.17Z M504 161.17L512.65 161.17L512.65 147.17L504 147.17Z M512 161.17L520.65 161.17L520.65 147.17L512 147.17Z M520 161.17L528.65 161.17L528.65 147.17L520 147.17Z M528 161.17L536.65 161.17L536.65 147.17L528 147.17Z M536 161.17L544.65 161.17L544.65 147.17L536 147.17Z M544 161.17L552.65 161.17L552.65 154.17L544 154.17Z M552 161.17L554.17 161.17L554.17 147.17L552 147.17Z                                                             M240 177.17L245.41 177.17L245.41 163.17L240 163.17Z M248 177.17L253.41 177.17L253.41 163.17L248 163.17Z                      M424 177.17L426.17 177.17L426.17 163.17L424 163.17Z M432 177.17L433.08 177.17L433.08 163.17L432 163.17Z M440 177.17L442.17 177.17L442.17 163.17L440 163.17Z M448 177.17L449.08 177.17L449.08 163.17L448 163.17Z M456 177.17L458.17 177.17L458.17 163.17L456 163.17Z M464 177.17L472.65 177.17L472.65 164.92L464 164.92Z M472 177.17L480.65 177.17L480.65 163.17L472 163.17Z M480 177.17L488.65 177.17L488.65 163.17L480 163.17Z M488 177.17L496.65 177.17L496.65 163.17L488 163.17Z M496 177.17L504.65 177.17L504.65 163.17L496 163.17Z M504 177.17L512.65 177.17L512.65 163.17L504 163.17Z M512 177.17L520.65 177.17L520.65 163.17L512 163.17Z M520 177.17L528.65 177.17L528.65 163.17L520 163.17Z M528 177.17L536.65 177.17L536.65 163.17L528 163.17Z M536 177.17L544.65 177.17L544.65 163.17L536 163.17Z M544 177.17L552.65 177.17L552.65 163.17L544 163.17Z M552 177.17L560.65 177.17L560.65 164.92L552 164.92Z M560 177.17L564.33 177.17L564.33 163.17L560 163.17Z                                                           M232 193.17L238.49 193.17L238.49 179.17L232 179.17Z M240 193.17L243.25 193.17L243.25 179.17L240 179.17Z M248 193.17L249.08 193.17L249.08 179.17L248 179.17Z M256 193.17L259.25 193.17L259.25 179.17L256 179.17Z                  M400 193.17L402.17 193.17L402.17 179.17L400 179.17Z   M424 193.17L425.08 193.17L425.08 179.17L424 179.17Z  M440 193.17L444.33 193.17L444.33 179.17L440 179.17Z M448 193.17L451.25 193.17L451.25 179.17L448 179.17Z M456 193.17L464.65 193.17L464.65 184.42L456 184.42Z M464 193.17L472.65 193.17L472.65 179.17L464 179.17Z M472 193.17L480.65 193.17L480.65 182.67L472 182.67Z M480 193.17L488.65 193.17L488.65 179.17L480 179.17Z M488 193.17L496.65 193.17L496.65 179.17L488 179.17Z M496 193.17L504.65 193.17L504.65 179.17L496 179.17Z M504 193.17L512.65 193.17L512.65 179.17L504 179.17Z M512 193.17L520.65 193.17L520.65 179.17L512 179.17Z M520 193.17L528.65 193.17L528.65 179.17L520 179.17Z M528 193.17L536.65 193.17L536.65 179.17L528 179.17Z M536 193.17L544.65 193.17L544.65 179.17L536 179.17Z M544 193.17L552.65 193.17L552.65 179.17L544 179.17Z M552 193.17L560.65 193.17L560.65 179.17L552 179.17Z M560 193.17L568.65 193.17L568.65 179.17L560 179.17Z M568 193.17L573.41 193.17L573.41 179.17L568 179.17Z                                                         M224 209.17L229.41 209.17L229.41 195.17L224 195.17Z M232 209.17L236.33 209.17L236.33 195.17L232 195.17Z  M248 209.17L250.17 209.17L250.17 195.17L248 195.17Z M256 209.17L262.49 209.17L262.49 195.17L256 195.17Z     M296 209.17L297.08 209.17L297.08 195.17L296 195.17Z M304 209.17L306.17 209.17L306.17 195.17L304 195.17Z        M368 209.17L369.08 209.17L369.08 195.17L368 195.17Z M376 209.17L380.33 209.17L380.33 195.17L376 195.17Z M384 209.17L386.17 209.17L386.17 195.17L384 195.17Z  M400 209.17L404.33 209.17L404.33 195.17L400 195.17Z M408 209.17L409.08 209.17L409.08 195.17L408 195.17Z M416 209.17L420.33 209.17L420.33 195.17L416 195.17Z M424 209.17L429.41 209.17L429.41 195.17L424 195.17Z M432 209.17L434.17 209.17L434.17 195.17L432 195.17Z M440 209.17L446.49 209.17L446.49 195.17L440 195.17Z M448 209.17L456.65 209.17L456.65 207.42L448 207.42Z M456 209.17L462.49 209.17L462.49 195.17L456 195.17Z M464 209.17L472.65 209.17L472.65 207.42L464 207.42Z M472 209.17L480.65 209.17L480.65 198.67L472 198.67Z M480 209.17L488.65 209.17L488.65 195.17L480 195.17Z M488 209.17L496.65 209.17L496.65 195.17L488 195.17Z M496 209.17L504.65 209.17L504.65 195.17L496 195.17Z M504 209.17L512.65 209.17L512.65 195.17L504 195.17Z M512 209.17L520.65 209.17L520.65 195.17L512 195.17Z M520 209.17L528.65 209.17L528.65 195.17L520 195.17Z M528 209.17L536.65 209.17L536.65 195.17L528 195.17Z M536 209.17L544.65 209.17L544.65 195.17L536 195.17Z M544 209.17L552.65 209.17L552.65 195.17L544 195.17Z M552 209.17L560.65 209.17L560.65 195.17L552 195.17Z M560 209.17L568.65 209.17L568.65 195.17L560 195.17Z M568 209.17L576.65 209.17L576.65 195.17L568 195.17Z M576 209.17L581.41 209.17L581.41 195.17L576 195.17Z                                                       M216 225.17L219.25 225.17L219.25 211.17L216 211.17Z M224 225.17L230.49 225.17L230.49 211.17L224 211.17Z    M256 225.17L263.57 225.17L263.57 211.17L256 211.17Z      M304 225.17L305.08 225.17L305.08 211.17L304 211.17Z M312 225.17L315.25 225.17L315.25 211.17L312 211.17Z M320 225.17L323.25 225.17L323.25 211.17L320 211.17Z M328 225.17L331.25 225.17L331.25 211.17L328 211.17Z M336 225.17L341.41 225.17L341.41 211.17L336 211.17Z M344 225.17L347.25 225.17L347.25 211.17L344 211.17Z M352 225.17L353.08 225.17L353.08 211.17L352 211.17Z  M368 225.17L369.08 225.17L369.08 211.17L368 211.17Z M376 225.17L379.25 225.17L379.25 211.17L376 211.17Z M384 225.17L388.33 225.17L388.33 211.17L384 211.17Z M392 225.17L398.49 225.17L398.49 211.17L392 211.17Z M400 225.17L406.49 225.17L406.49 211.17L400 211.17Z M408 225.17L414.49 225.17L414.49 211.17L408 211.17Z M416 225.17L419.25 225.17L419.25 211.17L416 211.17Z M424 225.17L427.25 225.17L427.25 211.17L424 211.17Z M432 225.17L435.25 225.17L435.25 211.17L432 211.17Z M440 225.17L441.08 225.17L441.08 211.17L440 211.17Z M448 225.17L456.65 225.17L456.65 223.42L448 223.42Z M456 225.17L464.65 225.17L464.65 212.92L456 212.92Z M464 225.17L472.65 225.17L472.65 216.42L464 216.42Z M472 225.17L480.65 225.17L480.65 221.67L472 221.67Z M480 225.17L487.57 225.17L487.57 211.17L480 211.17Z M488 225.17L496.65 225.17L496.65 223.42L488 223.42Z M496 225.17L504.65 225.17L504.65 214.67L496 214.67Z M504 225.17L512.65 225.17L512.65 211.17L504 211.17Z M512 225.17L520.65 225.17L520.65 211.17L512 211.17Z M520 225.17L528.65 225.17L528.65 211.17L520 211.17Z M528 225.17L536.65 225.17L536.65 211.17L528 211.17Z M536 225.17L544.65 225.17L544.65 211.17L536 211.17Z M544 225.17L552.65 225.17L552.65 211.17L544 211.17Z M552 225.17L560.65 225.17L560.65 211.17L552 211.17Z M560 225.17L568.65 225.17L568.65 211.17L560 211.17Z M568 225.17L576.65 225.17L576.65 211.17L568 211.17Z M576 225.17L584.65 225.17L584.65 212.92L576 212.92Z M584 225.17L586.17 225.17L586.17 211.17L584 211.17Z                                                      M216 241.17L224.65 241.17L224.65 239.42L216 239.42Z M224 241.17L225.08 241.17L225.08 227.17L224 227.17Z   M248 241.17L249.08 241.17L249.08 227.17L248 227.17Z M256 241.17L264.65 241.17L264.65 234.17L256 234.17Z   M280 241.17L281.08 241.17L281.08 227.17L280 227.17Z M288 241.17L289.08 241.17L289.08 227.17L288 227.17Z M296 241.17L298.17 241.17L298.17 227.17L296 227.17Z M304 241.17L306.17 241.17L306.17 227.17L304 227.17Z M312 241.17L315.25 241.17L315.25 227.17L312 227.17Z M320 241.17L322.17 241.17L322.17 227.17L320 227.17Z   M344 241.17L346.17 241.17L346.17 227.17L344 227.17Z M352 241.17L357.41 241.17L357.41 227.17L352 227.17Z M360 241.17L365.41 241.17L365.41 227.17L360 227.17Z M368 241.17L371.25 241.17L371.25 227.17L368 227.17Z M376 241.17L380.33 241.17L380.33 227.17L376 227.17Z M384 241.17L388.33 241.17L388.33 227.17L384 227.17Z M392 241.17L395.25 241.17L395.25 227.17L392 227.17Z M400 241.17L402.17 241.17L402.17 227.17L400 227.17Z M408 241.17L411.25 241.17L411.25 227.17L408 227.17Z M416 241.17L421.41 241.17L421.41 227.17L416 227.17Z M424 241.17L431.57 241.17L431.57 227.17L424 227.17Z M432 241.17L438.49 241.17L438.49 227.17L432 227.17Z M440 241.17L448.65 241.17L448.65 234.17L440 234.17Z M448 241.17L453.41 241.17L453.41 227.17L448 227.17Z M456 241.17L459.25 241.17L459.25 227.17L456 227.17Z M464 241.17L468.33 241.17L468.33 227.17L464 227.17Z M472 241.17L478.49 241.17L478.49 227.17L472 227.17Z M480 241.17L488.65 241.17L488.65 234.17L480 234.17Z M488 241.17L496.65 241.17L496.65 232.42L488 232.42Z M496 241.17L504.65 241.17L504.65 232.42L496 232.42Z M504 241.17L512.65 241.17L512.65 227.17L504 227.17Z M512 241.17L520.65 241.17L520.65 227.17L512 227.17Z M520 241.17L528.65 241.17L528.65 227.17L520 227.17Z M528 241.17L536.65 241.17L536.65 227.17L528 227.17Z M536 241.17L544.65 241.17L544.65 227.17L536 227.17Z M544 241.17L552.65 241.17L552.65 227.17L544 227.17Z M552 241.17L560.65 241.17L560.65 227.17L552 227.17Z M560 241.17L568.65 241.17L568.65 227.17L560 227.17Z M568 241.17L576.65 241.17L576.65 227.17L568 227.17Z M576 241.17L584.65 241.17L584.65 227.17L576 227.17Z M584 241.17L592.65 241.17L592.65 235.92L584 235.92Z                                                     M208 257.17L211.25 257.17L211.25 243.17L208 243.17Z M216 257.17L221.41 257.17L221.41 243.17L216 243.17Z M224 257.17L225.08 257.17L225.08 243.17L224 243.17Z  M240 257.17L242.17 257.17L242.17 243.17L240 243.17Z M248 257.17L252.33 257.17L252.33 243.17L248 243.17Z M256 257.17L263.57 257.17L263.57 243.17L256 243.17Z        M320 257.17L322.17 257.17L322.17 243.17L320 243.17Z M328 257.17L331.25 257.17L331.25 243.17L328 243.17Z M336 257.17L340.33 257.17L340.33 243.17L336 243.17Z M344 257.17L347.25 257.17L347.25 243.17L344 243.17Z M352 257.17L353.08 257.17L353.08 243.17L352 243.17Z M360 257.17L364.33 257.17L364.33 243.17L360 243.17Z M368 257.17L373.41 257.17L373.41 243.17L368 243.17Z  M384 257.17L385.08 257.17L385.08 243.17L384 243.17Z M392 257.17L397.41 257.17L397.41 243.17L392 243.17Z M400 257.17L408.65 257.17L408.65 251.92L400 251.92Z M408 257.17L413.41 257.17L413.41 243.17L408 243.17Z M416 257.17L419.25 257.17L419.25 243.17L416 243.17Z M424 257.17L425.08 257.17L425.08 243.17L424 243.17Z M432 257.17L438.49 257.17L438.49 243.17L432 243.17Z M440 257.17L442.17 257.17L442.17 243.17L440 243.17Z M448 257.17L456.65 257.17L456.65 255.42L448 255.42Z M456 257.17L464.65 257.17L464.65 244.92L456 244.92Z M464 257.17L472.65 257.17L472.65 248.42L464 248.42Z M472 257.17L478.49 257.17L478.49 243.17L472 243.17Z M480 257.17L481.08 257.17L481.08 243.17L480 243.17Z M488 257.17L493.41 257.17L493.41 243.17L488 243.17Z M496 257.17L504.65 257.17L504.65 250.17L496 250.17Z M504 257.17L512.65 257.17L512.65 243.17L504 243.17Z M512 257.17L520.65 257.17L520.65 243.17L512 243.17Z M520 257.17L528.65 257.17L528.65 243.17L520 243.17Z M528 257.17L536.65 257.17L536.65 243.17L528 243.17Z M536 257.17L544.65 257.17L544.65 243.17L536 243.17Z M544 257.17L552.65 257.17L552.65 243.17L544 243.17Z M552 257.17L560.65 257.17L560.65 243.17L552 243.17Z M560 257.17L568.65 257.17L568.65 243.17L560 243.17Z M568 257.17L576.65 257.17L576.65 243.17L568 243.17Z M576 257.17L584.65 257.17L584.65 243.17L576 243.17Z M584 257.17L592.65 257.17L592.65 243.17L584 243.17Z M592 257.17L593.08 257.17L593.08 243.17L592 243.17Z                                                    M208 273.17L214.49 273.17L214.49 259.17L208 259.17Z M216 273.17L220.33 273.17L220.33 259.17L216 259.17Z  M232 273.17L233.08 273.17L233.08 259.17L232 259.17Z M240 273.17L248.65 273.17L248.65 264.42L240 264.42Z M248 273.17L256.65 273.17L256.65 271.42L248 271.42Z M256 273.17L258.17 273.17L258.17 259.17L256 259.17Z     M296 273.17L297.08 273.17L297.08 259.17L296 259.17Z M304 273.17L305.08 273.17L305.08 259.17L304 259.17Z   M328 273.17L330.17 273.17L330.17 259.17L328 259.17Z M336 273.17L339.25 273.17L339.25 259.17L336 259.17Z M344 273.17L345.08 273.17L345.08 259.17L344 259.17Z M352 273.17L355.25 273.17L355.25 259.17L352 259.17Z M360 273.17L366.49 273.17L366.49 259.17L360 259.17Z M368 273.17L376.65 273.17L376.65 262.67L368 262.67Z M376 273.17L379.25 273.17L379.25 259.17L376 259.17Z  M392 273.17L393.08 273.17L393.08 259.17L392 259.17Z M400 273.17L408.65 273.17L408.65 271.42L400 271.42Z  M416 273.17L418.17 273.17L418.17 259.17L416 259.17Z M424 273.17L432.65 273.17L432.65 264.42L424 264.42Z M432 273.17L440.65 273.17L440.65 269.67L432 269.67Z M440 273.17L448.65 273.17L448.65 269.67L440 269.67Z M448 273.17L453.41 273.17L453.41 259.17L448 259.17Z M456 273.17L462.49 273.17L462.49 259.17L456 259.17Z M464 273.17L472.65 273.17L472.65 271.42L464 271.42Z M472 273.17L480.65 273.17L480.65 271.42L472 271.42Z M480 273.17L487.57 273.17L487.57 259.17L480 259.17Z M488 273.17L496.65 273.17L496.65 269.67L488 269.67Z M496 273.17L504.65 273.17L504.65 266.17L496 266.17Z M504 273.17L512.65 273.17L512.65 260.92L504 260.92Z M512 273.17L520.65 273.17L520.65 260.92L512 260.92Z M520 273.17L528.65 273.17L528.65 260.92L520 260.92Z M528 273.17L536.65 273.17L536.65 262.67L528 262.67Z M536 273.17L544.65 273.17L544.65 259.17L536 259.17Z M544 273.17L552.65 273.17L552.65 259.17L544 259.17Z M552 273.17L560.65 273.17L560.65 259.17L552 259.17Z M560 273.17L568.65 273.17L568.65 259.17L560 259.17Z M568 273.17L576.65 273.17L576.65 259.17L568 259.17Z M576 273.17L584.65 273.17L584.65 259.17L576 259.17Z M584 273.17L592.65 273.17L592.65 259.17L584 259.17Z M592 273.17L597.41 273.17L597.41 259.17L592 259.17Z                                     M88 289.17L91.25 289.17L91.25 275.17L88 275.17Z M96 289.17L100.33 289.17L100.33 275.17L96 275.17Z M104 289.17L108.33 289.17L108.33 275.17L104 275.17Z M112 289.17L114.17 289.17L114.17 275.17L112 275.17Z M120 289.17L121.08 289.17L121.08 275.17L120 275.17Z           M208 289.17L216.65 289.17L216.65 287.42L208 287.42Z M216 289.17L224.65 289.17L224.65 285.67L216 285.67Z M224 289.17L230.49 289.17L230.49 275.17L224 275.17Z M232 289.17L240.65 289.17L240.65 287.42L232 287.42Z M240 289.17L247.57 289.17L247.57 275.17L240 275.17Z M248 289.17L250.17 289.17L250.17 275.17L248 275.17Z  M264 289.17L265.08 289.17L265.08 275.17L264 275.17Z     M304 289.17L305.08 289.17L305.08 275.17L304 275.17Z M312 289.17L314.17 289.17L314.17 275.17L312 275.17Z M320 289.17L321.08 289.17L321.08 275.17L320 275.17Z M328 289.17L329.08 289.17L329.08 275.17L328 275.17Z M336 289.17L338.17 289.17L338.17 275.17L336 275.17Z M344 289.17L351.57 289.17L351.57 275.17L344 275.17Z M352 289.17L356.33 289.17L356.33 275.17L352 275.17Z  M368 289.17L369.08 289.17L369.08 275.17L368 275.17Z M376 289.17L384.65 289.17L384.65 282.17L376 282.17Z M384 289.17L387.25 289.17L387.25 275.17L384 275.17Z M392 289.17L396.33 289.17L396.33 275.17L392 275.17Z M400 289.17L408.65 289.17L408.65 287.42L400 287.42Z M408 289.17L409.08 289.17L409.08 275.17L408 275.17Z M416 289.17L424.65 289.17L424.65 283.92L416 283.92Z M424 289.17L430.49 289.17L430.49 275.17L424 275.17Z M432 289.17L433.08 289.17L433.08 275.17L432 275.17Z  M448 289.17L455.57 289.17L455.57 275.17L448 275.17Z M456 289.17L464.65 289.17L464.65 287.42L456 287.42Z M464 289.17L465.08 289.17L465.08 275.17L464 275.17Z M472 289.17L477.41 289.17L477.41 275.17L472 275.17Z M480 289.17L488.65 289.17L488.65 283.92L480 283.92Z M488 289.17L496.65 289.17L496.65 287.42L488 287.42Z M496 289.17L501.41 289.17L501.41 275.17L496 275.17Z M504 289.17L509.41 289.17L509.41 275.17L504 275.17Z M512 289.17L520.65 289.17L520.65 283.92L512 283.92Z M520 289.17L522.17 289.17L522.17 275.17L520 275.17Z M528 289.17L536.65 289.17L536.65 287.42L528 287.42Z M536 289.17L544.65 289.17L544.65 275.17L536 275.17Z M544 289.17L552.65 289.17L552.65 275.17L544 275.17Z M552 289.17L560.65 289.17L560.65 275.17L552 275.17Z M560 289.17L568.65 289.17L568.65 275.17L560 275.17Z M568 289.17L576.65 289.17L576.65 275.17L568 275.17Z M576 289.17L584.65 289.17L584.65 275.17L576 275.17Z M584 289.17L592.65 289.17L592.65 275.17L584 275.17Z M592 289.17L599.57 289.17L599.57 275.17L592 275.17Z            M688 289.17L689.08 289.17L689.08 275.17L688 275.17Z M696 289.17L699.25 289.17L699.25 275.17L696 275.17Z M704 289.17L707.25 289.17L707.25 275.17L704 275.17Z M712 289.17L715.25 289.17L715.25 275.17L712 275.17Z M720 289.17L721.08 289.17L721.08 275.17L720 275.17Z                    M80 305.17L81.08 305.17L81.08 291.17L80 291.17Z M88 305.17L95.57 305.17L95.57 291.17L88 291.17Z M96 305.17L104.65 305.17L104.65 301.67L96 301.67Z M104 305.17L111.57 305.17L111.57 291.17L104 291.17Z M112 305.17L117.41 305.17L117.41 291.17L112 291.17Z M120 305.17L124.33 305.17L124.33 291.17L120 291.17Z M128 305.17L132.33 305.17L132.33 291.17L128 291.17Z M136 305.17L140.33 305.17L140.33 291.17L136 291.17Z M144 305.17L146.17 305.17L146.17 291.17L144 291.17Z        M208 305.17L215.57 305.17L215.57 291.17L208 291.17Z M216 305.17L224.65 305.17L224.65 299.92L216 299.92Z M224 305.17L232.65 305.17L232.65 294.67L224 294.67Z M232 305.17L237.41 305.17L237.41 291.17L232 291.17Z M240 305.17L242.17 305.17L242.17 291.17L240 291.17Z M248 305.17L254.49 305.17L254.49 291.17L248 291.17Z M256 305.17L263.57 305.17L263.57 291.17L256 291.17Z M264 305.17L272.65 305.17L272.65 296.42L264 296.42Z M272 305.17L279.57 305.17L279.57 291.17L272 291.17Z M280 305.17L287.57 305.17L287.57 291.17L280 291.17Z M288 305.17L291.25 305.17L291.25 291.17L288 291.17Z    M320 305.17L321.08 305.17L321.08 291.17L320 291.17Z M328 305.17L331.25 305.17L331.25 291.17L328 291.17Z M336 305.17L338.17 305.17L338.17 291.17L336 291.17Z  M352 305.17L356.33 305.17L356.33 291.17L352 291.17Z M360 305.17L363.25 305.17L363.25 291.17L360 291.17Z M368 305.17L369.08 305.17L369.08 291.17L368 291.17Z M376 305.17L382.49 305.17L382.49 291.17L376 291.17Z M384 305.17L390.49 305.17L390.49 291.17L384 291.17Z M392 305.17L400.65 305.17L400.65 301.67L392 301.67Z M400 305.17L408.65 305.17L408.65 301.67L400 301.67Z M408 305.17L416.65 305.17L416.65 301.67L408 301.67Z M416 305.17L417.08 305.17L417.08 291.17L416 291.17Z  M432 305.17L433.08 305.17L433.08 291.17L432 291.17Z M440 305.17L447.57 305.17L447.57 291.17L440 291.17Z M448 305.17L452.33 305.17L452.33 291.17L448 291.17Z M456 305.17L457.08 305.17L457.08 291.17L456 291.17Z M464 305.17L472.65 305.17L472.65 303.42L464 303.42Z M472 305.17L480.65 305.17L480.65 299.92L472 299.92Z M480 305.17L482.17 305.17L482.17 291.17L480 291.17Z M488 305.17L492.33 305.17L492.33 291.17L488 291.17Z M496 305.17L497.08 305.17L497.08 291.17L496 291.17Z M504 305.17L512.65 305.17L512.65 298.17L504 298.17Z M512 305.17L520.65 305.17L520.65 303.42L512 303.42Z M520 305.17L528.65 305.17L528.65 296.42L520 296.42Z M528 305.17L536.65 305.17L536.65 292.92L528 292.92Z M536 305.17L544.65 305.17L544.65 291.17L536 291.17Z M544 305.17L552.65 305.17L552.65 291.17L544 291.17Z M552 305.17L560.65 305.17L560.65 291.17L552 291.17Z M560 305.17L568.65 305.17L568.65 291.17L560 291.17Z M568 305.17L576.65 305.17L576.65 291.17L568 291.17Z M576 305.17L584.65 305.17L584.65 291.17L576 291.17Z M584 305.17L592.65 305.17L592.65 291.17L584 291.17Z M592 305.17L600.65 305.17L600.65 301.67L592 301.67Z        M656 305.17L658.17 305.17L658.17 291.17L656 291.17Z M664 305.17L670.49 305.17L670.49 291.17L664 291.17Z M672 305.17L680.65 305.17L680.65 303.42L672 303.42Z M680 305.17L688.65 305.17L688.65 299.92L680 299.92Z M688 305.17L696.65 305.17L696.65 294.67L688 294.67Z M696 305.17L704.65 305.17L704.65 291.17L696 291.17Z M704 305.17L712.65 305.17L712.65 291.17L704 291.17Z M712 305.17L720.65 305.17L720.65 299.92L712 299.92Z M720 305.17L721.08 305.17L721.08 291.17L720 291.17Z                      M96 321.17L102.49 321.17L102.49 307.17L96 307.17Z M104 321.17L112.65 321.17L112.65 312.42L104 312.42Z M112 321.17L120.65 321.17L120.65 307.17L112 307.17Z M120 321.17L128.65 321.17L128.65 308.92L120 308.92Z M128 321.17L136.65 321.17L136.65 319.42L128 319.42Z M136 321.17L138.17 321.17L138.17 307.17L136 307.17Z M144 321.17L147.25 321.17L147.25 307.17L144 307.17Z M152 321.17L156.33 321.17L156.33 307.17L152 307.17Z M160 321.17L164.33 321.17L164.33 307.17L160 307.17Z M168 321.17L173.41 321.17L173.41 307.17L168 307.17Z M176 321.17L180.33 321.17L180.33 307.17L176 307.17Z M184 321.17L185.08 321.17L185.08 307.17L184 307.17Z  M200 321.17L201.08 321.17L201.08 307.17L200 307.17Z M208 321.17L215.57 321.17L215.57 307.17L208 307.17Z M216 321.17L224.65 321.17L224.65 319.42L216 319.42Z M224 321.17L230.49 321.17L230.49 307.17L224 307.17Z M232 321.17L237.41 321.17L237.41 307.17L232 307.17Z M240 321.17L248.65 321.17L248.65 308.92L240 308.92Z M248 321.17L256.65 321.17L256.65 307.17L248 307.17Z M256 321.17L264.65 321.17L264.65 307.17L256 307.17Z M264 321.17L272.65 321.17L272.65 307.17L264 307.17Z M272 321.17L280.65 321.17L280.65 307.17L272 307.17Z M280 321.17L288.65 321.17L288.65 307.17L280 307.17Z M288 321.17L296.65 321.17L296.65 310.67L288 310.67Z M296 321.17L304.65 321.17L304.65 319.42L296 319.42Z M304 321.17L312.65 321.17L312.65 317.67L304 317.67Z M312 321.17L313.08 321.17L313.08 307.17L312 307.17Z   M336 321.17L343.57 321.17L343.57 307.17L336 307.17Z M344 321.17L345.08 321.17L345.08 307.17L344 307.17Z  M360 321.17L365.41 321.17L365.41 307.17L360 307.17Z M368 321.17L376.65 321.17L376.65 315.92L368 315.92Z M376 321.17L377.08 321.17L377.08 307.17L376 307.17Z M384 321.17L391.57 321.17L391.57 307.17L384 307.17Z M392 321.17L399.57 321.17L399.57 307.17L392 307.17Z M400 321.17L408.65 321.17L408.65 307.17L400 307.17Z M408 321.17L412.33 321.17L412.33 307.17L408 307.17Z  M424 321.17L427.25 321.17L427.25 307.17L424 307.17Z M432 321.17L440.65 321.17L440.65 314.17L432 314.17Z M440 321.17L442.17 321.17L442.17 307.17L440 307.17Z M448 321.17L449.08 321.17L449.08 307.17L448 307.17Z M456 321.17L464.65 321.17L464.65 317.67L456 317.67Z M464 321.17L472.65 321.17L472.65 308.92L464 308.92Z M472 321.17L473.08 321.17L473.08 307.17L472 307.17Z M480 321.17L482.17 321.17L482.17 307.17L480 307.17Z M488 321.17L496.65 321.17L496.65 310.67L488 310.67Z M496 321.17L504.65 321.17L504.65 312.42L496 312.42Z M504 321.17L512.65 321.17L512.65 307.17L504 307.17Z M512 321.17L520.65 321.17L520.65 307.17L512 307.17Z M520 321.17L528.65 321.17L528.65 307.17L520 307.17Z M528 321.17L536.65 321.17L536.65 307.17L528 307.17Z M536 321.17L544.65 321.17L544.65 307.17L536 307.17Z M544 321.17L552.65 321.17L552.65 307.17L544 307.17Z M552 321.17L560.65 321.17L560.65 307.17L552 307.17Z M560 321.17L568.65 321.17L568.65 307.17L560 307.17Z M568 321.17L576.65 321.17L576.65 307.17L568 307.17Z M576 321.17L584.65 321.17L584.65 307.17L576 307.17Z M584 321.17L592.65 321.17L592.65 307.17L584 307.17Z M592 321.17L600.65 321.17L600.65 312.42L592 312.42Z M600 321.17L601.08 321.17L601.08 307.17L600 307.17Z  M616 321.17L617.08 321.17L617.08 307.17L616 307.17Z M624 321.17L629.41 321.17L629.41 307.17L624 307.17Z M632 321.17L640.65 321.17L640.65 317.67L632 317.67Z M640 321.17L648.65 321.17L648.65 312.42L640 312.42Z M648 321.17L656.65 321.17L656.65 308.92L648 308.92Z M656 321.17L664.65 321.17L664.65 307.17L656 307.17Z M664 321.17L672.65 321.17L672.65 307.17L664 307.17Z M672 321.17L680.65 321.17L680.65 307.17L672 307.17Z M680 321.17L688.65 321.17L688.65 307.17L680 307.17Z M688 321.17L696.65 321.17L696.65 307.17L688 307.17Z M696 321.17L704.65 321.17L704.65 307.17L696 307.17Z M704 321.17L710.49 321.17L710.49 307.17L704 307.17Z                         M104 337.17L112.65 337.17L112.65 335.42L104 335.42Z M112 337.17L120.65 337.17L120.65 326.67L112 326.67Z M120 337.17L128.65 337.17L128.65 323.17L120 323.17Z M128 337.17L136.65 337.17L136.65 323.17L128 323.17Z M136 337.17L144.65 337.17L144.65 323.17L136 323.17Z M144 337.17L152.65 337.17L152.65 330.17L144 330.17Z M152 337.17L159.57 337.17L159.57 323.17L152 323.17Z M160 337.17L162.17 337.17L162.17 323.17L160 323.17Z  M176 337.17L177.08 337.17L177.08 323.17L176 323.17Z M184 337.17L187.25 337.17L187.25 323.17L184 323.17Z M192 337.17L197.41 337.17L197.41 323.17L192 323.17Z M200 337.17L206.49 337.17L206.49 323.17L200 323.17Z M208 337.17L211.25 337.17L211.25 323.17L208 323.17Z M216 337.17L224.65 337.17L224.65 326.67L216 326.67Z M224 337.17L231.57 337.17L231.57 323.17L224 323.17Z M232 337.17L240.65 337.17L240.65 331.92L232 331.92Z M240 337.17L248.65 337.17L248.65 323.17L240 323.17Z M248 337.17L256.65 337.17L256.65 323.17L248 323.17Z M256 337.17L264.65 337.17L264.65 323.17L256 323.17Z M264 337.17L272.65 337.17L272.65 323.17L264 323.17Z M272 337.17L280.65 337.17L280.65 323.17L272 323.17Z M280 337.17L288.65 337.17L288.65 323.17L280 323.17Z M288 337.17L296.65 337.17L296.65 323.17L288 323.17Z M296 337.17L304.65 337.17L304.65 323.17L296 323.17Z M304 337.17L312.65 337.17L312.65 323.17L304 323.17Z M312 337.17L320.65 337.17L320.65 323.17L312 323.17Z M320 337.17L327.57 337.17L327.57 323.17L320 323.17Z M328 337.17L333.41 337.17L333.41 323.17L328 323.17Z M336 337.17L344.65 337.17L344.65 326.67L336 326.67Z M344 337.17L345.08 337.17L345.08 323.17L344 323.17Z  M360 337.17L366.49 337.17L366.49 323.17L360 323.17Z M368 337.17L376.65 337.17L376.65 323.17L368 323.17Z M376 337.17L379.25 337.17L379.25 323.17L376 323.17Z M384 337.17L392.65 337.17L392.65 335.42L384 335.42Z M392 337.17L400.65 337.17L400.65 331.92L392 331.92Z M400 337.17L408.65 337.17L408.65 323.17L400 323.17Z M408 337.17L409.08 337.17L409.08 323.17L408 323.17Z M416 337.17L418.17 337.17L418.17 323.17L416 323.17Z M424 337.17L432.65 337.17L432.65 326.67L424 326.67Z M432 337.17L438.49 337.17L438.49 323.17L432 323.17Z  M448 337.17L452.33 337.17L452.33 323.17L448 323.17Z M456 337.17L464.65 337.17L464.65 323.17L456 323.17Z M464 337.17L472.65 337.17L472.65 323.17L464 323.17Z M472 337.17L480.65 337.17L480.65 324.92L472 324.92Z M480 337.17L488.65 337.17L488.65 323.17L480 323.17Z M488 337.17L496.65 337.17L496.65 323.17L488 323.17Z M496 337.17L504.65 337.17L504.65 323.17L496 323.17Z M504 337.17L512.65 337.17L512.65 323.17L504 323.17Z M512 337.17L520.65 337.17L520.65 323.17L512 323.17Z M520 337.17L528.65 337.17L528.65 323.17L520 323.17Z M528 337.17L536.65 337.17L536.65 323.17L528 323.17Z M536 337.17L544.65 337.17L544.65 323.17L536 323.17Z M544 337.17L552.65 337.17L552.65 323.17L544 323.17Z M552 337.17L560.65 337.17L560.65 323.17L552 323.17Z M560 337.17L568.65 337.17L568.65 323.17L560 323.17Z M568 337.17L576.65 337.17L576.65 323.17L568 323.17Z M576 337.17L584.65 337.17L584.65 323.17L576 323.17Z M584 337.17L592.65 337.17L592.65 323.17L584 323.17Z M592 337.17L600.65 337.17L600.65 323.17L592 323.17Z M600 337.17L608.65 337.17L608.65 328.42L600 328.42Z M608 337.17L616.65 337.17L616.65 328.42L608 328.42Z M616 337.17L624.65 337.17L624.65 323.17L616 323.17Z M624 337.17L632.65 337.17L632.65 323.17L624 323.17Z M632 337.17L640.65 337.17L640.65 323.17L632 323.17Z M640 337.17L648.65 337.17L648.65 323.17L640 323.17Z M648 337.17L656.65 337.17L656.65 323.17L648 323.17Z M656 337.17L664.65 337.17L664.65 323.17L656 323.17Z M664 337.17L672.65 337.17L672.65 323.17L664 323.17Z M672 337.17L680.65 337.17L680.65 323.17L672 323.17Z M680 337.17L688.65 337.17L688.65 323.17L680 323.17Z M688 337.17L696.65 337.17L696.65 323.17L688 323.17Z M696 337.17L704.65 337.17L704.65 333.67L696 333.67Z                          M104 353.17L106.17 353.17L106.17 339.17L104 339.17Z M112 353.17L120.65 353.17L120.65 347.92L112 347.92Z M120 353.17L128.65 353.17L128.65 339.17L120 339.17Z M128 353.17L136.65 353.17L136.65 339.17L128 339.17Z M136 353.17L144.65 353.17L144.65 342.67L136 342.67Z M144 353.17L152.65 353.17L152.65 346.17L144 346.17Z M152 353.17L160.65 353.17L160.65 339.17L152 339.17Z M160 353.17L168.65 353.17L168.65 339.17L160 339.17Z M168 353.17L176.65 353.17L176.65 347.92L168 347.92Z M176 353.17L179.25 353.17L179.25 339.17L176 339.17Z  M192 353.17L197.41 353.17L197.41 339.17L192 339.17Z M200 353.17L205.41 353.17L205.41 339.17L200 339.17Z M208 353.17L215.57 353.17L215.57 339.17L208 339.17Z M216 353.17L222.49 353.17L222.49 339.17L216 339.17Z M224 353.17L229.41 353.17L229.41 339.17L224 339.17Z M232 353.17L240.65 353.17L240.65 342.67L232 342.67Z M240 353.17L248.65 353.17L248.65 339.17L240 339.17Z M248 353.17L256.65 353.17L256.65 339.17L248 339.17Z M256 353.17L264.65 353.17L264.65 339.17L256 339.17Z M264 353.17L272.65 353.17L272.65 339.17L264 339.17Z M272 353.17L280.65 353.17L280.65 339.17L272 339.17Z M280 353.17L288.65 353.17L288.65 339.17L280 339.17Z M288 353.17L296.65 353.17L296.65 339.17L288 339.17Z M296 353.17L304.65 353.17L304.65 339.17L296 339.17Z M304 353.17L312.65 353.17L312.65 339.17L304 339.17Z M312 353.17L320.65 353.17L320.65 339.17L312 339.17Z M320 353.17L328.65 353.17L328.65 339.17L320 339.17Z M328 353.17L336.65 353.17L336.65 339.17L328 339.17Z M336 353.17L344.65 353.17L344.65 339.17L336 339.17Z M344 353.17L352.65 353.17L352.65 351.42L344 351.42Z M352 353.17L360.65 353.17L360.65 349.67L352 349.67Z M360 353.17L368.65 353.17L368.65 339.17L360 339.17Z M368 353.17L376.65 353.17L376.65 339.17L368 339.17Z M376 353.17L382.49 353.17L382.49 339.17L376 339.17Z M384 353.17L392.65 353.17L392.65 346.17L384 346.17Z M392 353.17L400.65 353.17L400.65 339.17L392 339.17Z M400 353.17L408.65 353.17L408.65 339.17L400 339.17Z M408 353.17L413.41 353.17L413.41 339.17L408 339.17Z M416 353.17L424.65 353.17L424.65 347.92L416 347.92Z M424 353.17L432.65 353.17L432.65 339.17L424 339.17Z M432 353.17L440.65 353.17L440.65 340.92L432 340.92Z M440 353.17L448.65 353.17L448.65 340.92L440 340.92Z M448 353.17L456.65 353.17L456.65 339.17L448 339.17Z M456 353.17L464.65 353.17L464.65 339.17L456 339.17Z M464 353.17L472.65 353.17L472.65 339.17L464 339.17Z M472 353.17L480.65 353.17L480.65 339.17L472 339.17Z M480 353.17L488.65 353.17L488.65 339.17L480 339.17Z M488 353.17L496.65 353.17L496.65 339.17L488 339.17Z M496 353.17L504.65 353.17L504.65 339.17L496 339.17Z M504 353.17L512.65 353.17L512.65 339.17L504 339.17Z M512 353.17L520.65 353.17L520.65 339.17L512 339.17Z M520 353.17L528.65 353.17L528.65 339.17L520 339.17Z M528 353.17L536.65 353.17L536.65 339.17L528 339.17Z M536 353.17L544.65 353.17L544.65 339.17L536 339.17Z M544 353.17L552.65 353.17L552.65 339.17L544 339.17Z M552 353.17L560.65 353.17L560.65 339.17L552 339.17Z M560 353.17L568.65 353.17L568.65 339.17L560 339.17Z M568 353.17L576.65 353.17L576.65 339.17L568 339.17Z M576 353.17L584.65 353.17L584.65 339.17L576 339.17Z M584 353.17L592.65 353.17L592.65 339.17L584 339.17Z M592 353.17L600.65 353.17L600.65 339.17L592 339.17Z M600 353.17L608.65 353.17L608.65 339.17L600 339.17Z M608 353.17L616.65 353.17L616.65 339.17L608 339.17Z M616 353.17L624.65 353.17L624.65 339.17L616 339.17Z M624 353.17L632.65 353.17L632.65 339.17L624 339.17Z M632 353.17L640.65 353.17L640.65 339.17L632 339.17Z M640 353.17L648.65 353.17L648.65 339.17L640 339.17Z M648 353.17L656.65 353.17L656.65 339.17L648 339.17Z M656 353.17L664.65 353.17L664.65 339.17L656 339.17Z M664 353.17L672.65 353.17L672.65 339.17L664 339.17Z M672 353.17L680.65 353.17L680.65 339.17L672 339.17Z M680 353.17L688.65 353.17L688.65 339.17L680 339.17Z M688 353.17L696.65 353.17L696.65 339.17L688 339.17Z M696 353.17L698.17 353.17L698.17 339.17L696 339.17Z                           M112 369.17L120.65 369.17L120.65 367.42L112 367.42Z M120 369.17L128.65 369.17L128.65 355.17L120 355.17Z M128 369.17L136.65 369.17L136.65 355.17L128 355.17Z M136 369.17L142.49 369.17L142.49 355.17L136 355.17Z M144 369.17L152.65 369.17L152.65 362.17L144 362.17Z M152 369.17L160.65 369.17L160.65 355.17L152 355.17Z M160 369.17L168.65 369.17L168.65 356.92L160 356.92Z M168 369.17L176.65 369.17L176.65 355.17L168 355.17Z M176 369.17L184.65 369.17L184.65 355.17L176 355.17Z M184 369.17L192.65 369.17L192.65 362.17L184 362.17Z M192 369.17L200.65 369.17L200.65 360.42L192 360.42Z M200 369.17L208.65 369.17L208.65 358.67L200 358.67Z M208 369.17L216.65 369.17L216.65 363.92L208 363.92Z M216 369.17L221.41 369.17L221.41 355.17L216 355.17Z M224 369.17L230.49 369.17L230.49 355.17L224 355.17Z M232 369.17L240.65 369.17L240.65 367.42L232 367.42Z M240 369.17L248.65 369.17L248.65 362.17L240 362.17Z M248 369.17L256.65 369.17L256.65 358.67L248 358.67Z M256 369.17L264.65 369.17L264.65 360.42L256 360.42Z M264 369.17L272.65 369.17L272.65 358.67L264 358.67Z M272 369.17L280.65 369.17L280.65 358.67L272 358.67Z M280 369.17L288.65 369.17L288.65 362.17L280 362.17Z M288 369.17L296.65 369.17L296.65 362.17L288 362.17Z M296 369.17L298.17 369.17L298.17 355.17L296 355.17Z M304 369.17L310.49 369.17L310.49 355.17L304 355.17Z M312 369.17L320.65 369.17L320.65 363.92L312 363.92Z M320 369.17L328.65 369.17L328.65 360.42L320 360.42Z M328 369.17L336.65 369.17L336.65 355.17L328 355.17Z M336 369.17L344.65 369.17L344.65 355.17L336 355.17Z M344 369.17L352.65 369.17L352.65 355.17L344 355.17Z M352 369.17L360.65 369.17L360.65 355.17L352 355.17Z M360 369.17L368.65 369.17L368.65 355.17L360 355.17Z M368 369.17L376.65 369.17L376.65 355.17L368 355.17Z M376 369.17L384.65 369.17L384.65 355.17L376 355.17Z M384 369.17L392.65 369.17L392.65 355.17L384 355.17Z M392 369.17L400.65 369.17L400.65 355.17L392 355.17Z M400 369.17L408.65 369.17L408.65 355.17L400 355.17Z M408 369.17L416.65 369.17L416.65 355.17L408 355.17Z M416 369.17L424.65 369.17L424.65 355.17L416 355.17Z M424 369.17L432.65 369.17L432.65 355.17L424 355.17Z M432 369.17L440.65 369.17L440.65 355.17L432 355.17Z M440 369.17L448.65 369.17L448.65 355.17L440 355.17Z M448 369.17L456.65 369.17L456.65 355.17L448 355.17Z M456 369.17L464.65 369.17L464.65 355.17L456 355.17Z M464 369.17L472.65 369.17L472.65 355.17L464 355.17Z M472 369.17L480.65 369.17L480.65 355.17L472 355.17Z M480 369.17L488.65 369.17L488.65 355.17L480 355.17Z M488 369.17L496.65 369.17L496.65 365.67L488 365.67Z M496 369.17L504.65 369.17L504.65 365.67L496 365.67Z M504 369.17L512.65 369.17L512.65 367.42L504 367.42Z M512 369.17L520.65 369.17L520.65 355.17L512 355.17Z M520 369.17L528.65 369.17L528.65 355.17L520 355.17Z M528 369.17L536.65 369.17L536.65 355.17L528 355.17Z M536 369.17L544.65 369.17L544.65 355.17L536 355.17Z M544 369.17L552.65 369.17L552.65 355.17L544 355.17Z M552 369.17L560.65 369.17L560.65 355.17L552 355.17Z M560 369.17L568.65 369.17L568.65 355.17L560 355.17Z M568 369.17L576.65 369.17L576.65 355.17L568 355.17Z M576 369.17L584.65 369.17L584.65 355.17L576 355.17Z M584 369.17L592.65 369.17L592.65 355.17L584 355.17Z M592 369.17L600.65 369.17L600.65 355.17L592 355.17Z M600 369.17L608.65 369.17L608.65 355.17L600 355.17Z M608 369.17L616.65 369.17L616.65 355.17L608 355.17Z M616 369.17L624.65 369.17L624.65 355.17L616 355.17Z M624 369.17L632.65 369.17L632.65 355.17L624 355.17Z M632 369.17L640.65 369.17L640.65 355.17L632 355.17Z M640 369.17L648.65 369.17L648.65 355.17L640 355.17Z M648 369.17L656.65 369.17L656.65 355.17L648 355.17Z M656 369.17L664.65 369.17L664.65 355.17L656 355.17Z M664 369.17L672.65 369.17L672.65 355.17L664 355.17Z M672 369.17L680.65 369.17L680.65 355.17L672 355.17Z M680 369.17L688.65 369.17L688.65 355.17L680 355.17Z M688 369.17L696.65 369.17L696.65 360.42L688 360.42Z                            M112 385.17L119.57 385.17L119.57 371.17L112 371.17Z M120 385.17L128.65 385.17L128.65 376.42L120 376.42Z M128 385.17L136.65 385.17L136.65 371.17L128 371.17Z M136 385.17L140.33 385.17L140.33 371.17L136 371.17Z M144 385.17L152.65 385.17L152.65 374.67L144 374.67Z M152 385.17L160.65 385.17L160.65 381.67L152 381.67Z M160 385.17L168.65 385.17L168.65 381.67L160 381.67Z M168 385.17L176.65 385.17L176.65 371.17L168 371.17Z M176 385.17L184.65 385.17L184.65 371.17L176 371.17Z M184 385.17L192.65 385.17L192.65 371.17L184 371.17Z M192 385.17L200.65 385.17L200.65 371.17L192 371.17Z M200 385.17L208.65 385.17L208.65 372.92L200 372.92Z M208 385.17L214.49 385.17L214.49 371.17L208 371.17Z M216 385.17L218.17 385.17L218.17 371.17L216 371.17Z M224 385.17L228.33 385.17L228.33 371.17L224 371.17Z M232 385.17L238.49 385.17L238.49 371.17L232 371.17Z M240 385.17L246.49 385.17L246.49 371.17L240 371.17Z M248 385.17L255.57 385.17L255.57 371.17L248 371.17Z M256 385.17L261.41 385.17L261.41 371.17L256 371.17Z M264 385.17L268.33 385.17L268.33 371.17L264 371.17Z M272 385.17L278.49 385.17L278.49 371.17L272 371.17Z M280 385.17L288.65 385.17L288.65 371.17L280 371.17Z M288 385.17L296.65 385.17L296.65 376.42L288 376.42Z M296 385.17L304.65 385.17L304.65 376.42L296 376.42Z M304 385.17L312.65 385.17L312.65 378.17L304 378.17Z M312 385.17L320.65 385.17L320.65 374.67L312 374.67Z M320 385.17L328.65 385.17L328.65 371.17L320 371.17Z M328 385.17L336.65 385.17L336.65 371.17L328 371.17Z M336 385.17L344.65 385.17L344.65 371.17L336 371.17Z M344 385.17L352.65 385.17L352.65 372.92L344 372.92Z M352 385.17L360.65 385.17L360.65 371.17L352 371.17Z M360 385.17L368.65 385.17L368.65 372.92L360 372.92Z M368 385.17L376.65 385.17L376.65 372.92L368 372.92Z M376 385.17L384.65 385.17L384.65 378.17L376 378.17Z M384 385.17L392.65 385.17L392.65 383.42L384 383.42Z M392 385.17L398.49 385.17L398.49 371.17L392 371.17Z M400 385.17L407.57 385.17L407.57 371.17L400 371.17Z M408 385.17L416.65 385.17L416.65 378.17L408 378.17Z M416 385.17L424.65 385.17L424.65 371.17L416 371.17Z M424 385.17L432.65 385.17L432.65 371.17L424 371.17Z M432 385.17L440.65 385.17L440.65 371.17L432 371.17Z M440 385.17L448.65 385.17L448.65 371.17L440 371.17Z M448 385.17L456.65 385.17L456.65 371.17L448 371.17Z M456 385.17L464.65 385.17L464.65 371.17L456 371.17Z M464 385.17L472.65 385.17L472.65 371.17L464 371.17Z M472 385.17L480.65 385.17L480.65 371.17L472 371.17Z M480 385.17L488.65 385.17L488.65 371.17L480 371.17Z M488 385.17L496.65 385.17L496.65 371.17L488 371.17Z M496 385.17L504.65 385.17L504.65 372.92L496 372.92Z M504 385.17L512.65 385.17L512.65 371.17L504 371.17Z M512 385.17L520.65 385.17L520.65 371.17L512 371.17Z M520 385.17L528.65 385.17L528.65 371.17L520 371.17Z M528 385.17L536.65 385.17L536.65 371.17L528 371.17Z M536 385.17L544.65 385.17L544.65 371.17L536 371.17Z M544 385.17L552.65 385.17L552.65 371.17L544 371.17Z M552 385.17L560.65 385.17L560.65 371.17L552 371.17Z M560 385.17L568.65 385.17L568.65 371.17L560 371.17Z M568 385.17L576.65 385.17L576.65 371.17L568 371.17Z M576 385.17L584.65 385.17L584.65 371.17L576 371.17Z M584 385.17L592.65 385.17L592.65 371.17L584 371.17Z M592 385.17L600.65 385.17L600.65 371.17L592 371.17Z M600 385.17L608.65 385.17L608.65 371.17L600 371.17Z M608 385.17L616.65 385.17L616.65 371.17L608 371.17Z M616 385.17L624.65 385.17L624.65 371.17L616 371.17Z M624 385.17L632.65 385.17L632.65 371.17L624 371.17Z M632 385.17L640.65 385.17L640.65 371.17L632 371.17Z M640 385.17L648.65 385.17L648.65 371.17L640 371.17Z M648 385.17L656.65 385.17L656.65 371.17L648 371.17Z M656 385.17L664.65 385.17L664.65 371.17L656 371.17Z M664 385.17L672.65 385.17L672.65 371.17L664 371.17Z M672 385.17L680.65 385.17L680.65 371.17L672 371.17Z M680 385.17L688.65 385.17L688.65 371.17L680 371.17Z M688 385.17L696.65 385.17L696.65 381.67L688 381.67Z                            M112 401.17L114.17 401.17L114.17 387.17L112 387.17Z M120 401.17L128.65 401.17L128.65 399.42L120 399.42Z M128 401.17L136.65 401.17L136.65 392.42L128 392.42Z M136 401.17L143.57 401.17L143.57 387.17L136 387.17Z M144 401.17L152.65 401.17L152.65 399.42L144 399.42Z M152 401.17L160.65 401.17L160.65 387.17L152 387.17Z M160 401.17L168.65 401.17L168.65 387.17L160 387.17Z M168 401.17L176.65 401.17L176.65 387.17L168 387.17Z M176 401.17L184.65 401.17L184.65 387.17L176 387.17Z M184 401.17L192.65 401.17L192.65 387.17L184 387.17Z M192 401.17L200.65 401.17L200.65 397.67L192 397.67Z M200 401.17L208.65 401.17L208.65 388.92L200 388.92Z M208 401.17L216.65 401.17L216.65 397.67L208 397.67Z M216 401.17L224.65 401.17L224.65 399.42L216 399.42Z M224 401.17L229.41 401.17L229.41 387.17L224 387.17Z M232 401.17L233.08 401.17L233.08 387.17L232 387.17Z M240 401.17L241.08 401.17L241.08 387.17L240 387.17Z M248 401.17L249.08 401.17L249.08 387.17L248 387.17Z M256 401.17L258.17 401.17L258.17 387.17L256 387.17Z M264 401.17L269.41 401.17L269.41 387.17L264 387.17Z M272 401.17L278.49 401.17L278.49 387.17L272 387.17Z M280 401.17L285.41 401.17L285.41 387.17L280 387.17Z M288 401.17L296.65 401.17L296.65 397.67L288 397.67Z M296 401.17L304.65 401.17L304.65 394.17L296 394.17Z M304 401.17L312.65 401.17L312.65 392.42L304 392.42Z M312 401.17L320.65 401.17L320.65 392.42L312 392.42Z M320 401.17L328.65 401.17L328.65 390.67L320 390.67Z M328 401.17L336.65 401.17L336.65 390.67L328 390.67Z M336 401.17L344.65 401.17L344.65 399.42L336 399.42Z M344 401.17L351.57 401.17L351.57 387.17L344 387.17Z M352 401.17L360.65 401.17L360.65 397.67L352 397.67Z M360 401.17L365.41 401.17L365.41 387.17L360 387.17Z M368 401.17L372.33 401.17L372.33 387.17L368 387.17Z M376 401.17L379.25 401.17L379.25 387.17L376 387.17Z M384 401.17L387.25 401.17L387.25 387.17L384 387.17Z M392 401.17L395.25 401.17L395.25 387.17L392 387.17Z M400 401.17L404.33 401.17L404.33 387.17L400 387.17Z M408 401.17L416.65 401.17L416.65 399.42L408 399.42Z M416 401.17L424.65 401.17L424.65 390.67L416 390.67Z M424 401.17L432.65 401.17L432.65 387.17L424 387.17Z M432 401.17L440.65 401.17L440.65 387.17L432 387.17Z M440 401.17L448.65 401.17L448.65 387.17L440 387.17Z M448 401.17L456.65 401.17L456.65 387.17L448 387.17Z M456 401.17L464.65 401.17L464.65 387.17L456 387.17Z M464 401.17L472.65 401.17L472.65 387.17L464 387.17Z M472 401.17L480.65 401.17L480.65 387.17L472 387.17Z M480 401.17L488.65 401.17L488.65 387.17L480 387.17Z M488 401.17L496.65 401.17L496.65 387.17L488 387.17Z M496 401.17L504.65 401.17L504.65 387.17L496 387.17Z M504 401.17L512.65 401.17L512.65 387.17L504 387.17Z M512 401.17L520.65 401.17L520.65 387.17L512 387.17Z M520 401.17L528.65 401.17L528.65 387.17L520 387.17Z M528 401.17L536.65 401.17L536.65 387.17L528 387.17Z M536 401.17L544.65 401.17L544.65 387.17L536 387.17Z M544 401.17L552.65 401.17L552.65 387.17L544 387.17Z M552 401.17L560.65 401.17L560.65 387.17L552 387.17Z M560 401.17L568.65 401.17L568.65 387.17L560 387.17Z M568 401.17L576.65 401.17L576.65 387.17L568 387.17Z M576 401.17L584.65 401.17L584.65 387.17L576 387.17Z M584 401.17L592.65 401.17L592.65 387.17L584 387.17Z M592 401.17L600.65 401.17L600.65 387.17L592 387.17Z M600 401.17L608.65 401.17L608.65 387.17L600 387.17Z M608 401.17L616.65 401.17L616.65 387.17L608 387.17Z M616 401.17L624.65 401.17L624.65 387.17L616 387.17Z M624 401.17L632.65 401.17L632.65 387.17L624 387.17Z M632 401.17L640.65 401.17L640.65 387.17L632 387.17Z M640 401.17L648.65 401.17L648.65 387.17L640 387.17Z M648 401.17L656.65 401.17L656.65 387.17L648 387.17Z M656 401.17L664.65 401.17L664.65 387.17L656 387.17Z M664 401.17L672.65 401.17L672.65 387.17L664 387.17Z M672 401.17L680.65 401.17L680.65 387.17L672 387.17Z M680 401.17L688.65 401.17L688.65 392.42L680 392.42Z M688 401.17L690.17 401.17L690.17 387.17L688 387.17Z                             M120 417.17L121.08 417.17L121.08 403.17L120 403.17Z M128 417.17L136.65 417.17L136.65 415.42L128 415.42Z M136 417.17L144.65 417.17L144.65 408.42L136 408.42Z M144 417.17L149.41 417.17L149.41 403.17L144 403.17Z M152 417.17L160.65 417.17L160.65 404.92L152 404.92Z M160 417.17L168.65 417.17L168.65 403.17L160 403.17Z M168 417.17L176.65 417.17L176.65 403.17L168 403.17Z M176 417.17L184.65 417.17L184.65 403.17L176 403.17Z M184 417.17L192.65 417.17L192.65 411.92L184 411.92Z M192 417.17L200.65 417.17L200.65 410.17L192 410.17Z M200 417.17L208.65 417.17L208.65 403.17L200 403.17Z M208 417.17L216.65 417.17L216.65 410.17L208 410.17Z M216 417.17L224.65 417.17L224.65 413.67L216 413.67Z M224 417.17L232.65 417.17L232.65 411.92L224 411.92Z M232 417.17L236.33 417.17L236.33 403.17L232 403.17Z M240 417.17L241.08 417.17L241.08 403.17L240 403.17Z M248 417.17L249.08 417.17L249.08 403.17L248 403.17Z M256 417.17L257.08 417.17L257.08 403.17L256 403.17Z M264 417.17L265.08 417.17L265.08 403.17L264 403.17Z M272 417.17L274.17 417.17L274.17 403.17L272 403.17Z M280 417.17L285.41 417.17L285.41 403.17L280 403.17Z M288 417.17L294.49 417.17L294.49 403.17L288 403.17Z M296 417.17L303.57 417.17L303.57 403.17L296 403.17Z M304 417.17L312.65 417.17L312.65 413.67L304 413.67Z M312 417.17L320.65 417.17L320.65 410.17L312 410.17Z M320 417.17L325.41 417.17L325.41 403.17L320 403.17Z M328 417.17L330.17 417.17L330.17 403.17L328 403.17Z M336 417.17L339.25 417.17L339.25 403.17L336 403.17Z M344 417.17L351.57 417.17L351.57 403.17L344 403.17Z M352 417.17L360.65 417.17L360.65 415.42L352 415.42Z M360 417.17L367.57 417.17L367.57 403.17L360 403.17Z M368 417.17L369.08 417.17L369.08 403.17L368 403.17Z M376 417.17L378.17 417.17L378.17 403.17L376 403.17Z    M408 417.17L414.49 417.17L414.49 403.17L408 403.17Z M416 417.17L424.65 417.17L424.65 403.17L416 403.17Z M424 417.17L432.65 417.17L432.65 403.17L424 403.17Z M432 417.17L440.65 417.17L440.65 403.17L432 403.17Z M440 417.17L448.65 417.17L448.65 403.17L440 403.17Z M448 417.17L456.65 417.17L456.65 403.17L448 403.17Z M456 417.17L464.65 417.17L464.65 403.17L456 403.17Z M464 417.17L472.65 417.17L472.65 403.17L464 403.17Z M472 417.17L480.65 417.17L480.65 403.17L472 403.17Z M480 417.17L488.65 417.17L488.65 403.17L480 403.17Z M488 417.17L496.65 417.17L496.65 403.17L488 403.17Z M496 417.17L504.65 417.17L504.65 403.17L496 403.17Z M504 417.17L512.65 417.17L512.65 403.17L504 403.17Z M512 417.17L520.65 417.17L520.65 410.17L512 410.17Z M520 417.17L528.65 417.17L528.65 413.67L520 413.67Z M528 417.17L535.57 417.17L535.57 403.17L528 403.17Z M536 417.17L544.65 417.17L544.65 411.92L536 411.92Z M544 417.17L552.65 417.17L552.65 403.17L544 403.17Z M552 417.17L560.65 417.17L560.65 403.17L552 403.17Z M560 417.17L568.65 417.17L568.65 403.17L560 403.17Z M568 417.17L576.65 417.17L576.65 403.17L568 403.17Z M576 417.17L584.65 417.17L584.65 403.17L576 403.17Z M584 417.17L592.65 417.17L592.65 403.17L584 403.17Z M592 417.17L600.65 417.17L600.65 403.17L592 403.17Z M600 417.17L608.65 417.17L608.65 403.17L600 403.17Z M608 417.17L616.65 417.17L616.65 403.17L608 403.17Z M616 417.17L624.65 417.17L624.65 403.17L616 403.17Z M624 417.17L632.65 417.17L632.65 403.17L624 403.17Z M632 417.17L640.65 417.17L640.65 403.17L632 403.17Z M640 417.17L648.65 417.17L648.65 403.17L640 403.17Z M648 417.17L656.65 417.17L656.65 403.17L648 403.17Z M656 417.17L664.65 417.17L664.65 403.17L656 403.17Z M664 417.17L672.65 417.17L672.65 403.17L664 403.17Z M672 417.17L680.65 417.17L680.65 410.17L672 410.17Z M680 417.17L681.08 417.17L681.08 403.17L680 403.17Z                               M128 433.17L131.25 433.17L131.25 419.17L128 419.17Z M136 433.17L144.65 433.17L144.65 429.67L136 429.67Z M144 433.17L152.65 433.17L152.65 419.17L144 419.17Z M152 433.17L160.65 433.17L160.65 431.42L152 431.42Z M160 433.17L166.49 433.17L166.49 419.17L160 419.17Z M168 433.17L176.65 433.17L176.65 431.42L168 431.42Z M176 433.17L184.65 433.17L184.65 420.92L176 420.92Z M184 433.17L192.65 433.17L192.65 419.17L184 419.17Z M192 433.17L200.65 433.17L200.65 420.92L192 420.92Z M200 433.17L208.65 433.17L208.65 419.17L200 419.17Z M208 433.17L216.65 433.17L216.65 419.17L208 419.17Z M216 433.17L224.65 433.17L224.65 427.92L216 427.92Z M224 433.17L232.65 433.17L232.65 419.17L224 419.17Z M232 433.17L240.65 433.17L240.65 419.17L232 419.17Z M240 433.17L248.65 433.17L248.65 422.67L240 422.67Z M248 433.17L256.65 433.17L256.65 426.17L248 426.17Z M256 433.17L264.65 433.17L264.65 426.17L256 426.17Z M264 433.17L270.49 433.17L270.49 419.17L264 419.17Z M272 433.17L278.49 433.17L278.49 419.17L272 419.17Z M280 433.17L287.57 433.17L287.57 419.17L280 419.17Z M288 433.17L296.65 433.17L296.65 431.42L288 431.42Z M296 433.17L304.65 433.17L304.65 426.17L296 426.17Z M304 433.17L312.65 433.17L312.65 431.42L304 431.42Z M312 433.17L313.08 433.17L313.08 419.17L312 419.17Z M320 433.17L321.08 433.17L321.08 419.17L320 419.17Z M328 433.17L336.65 433.17L336.65 431.42L328 431.42Z M336 433.17L344.65 433.17L344.65 426.17L336 426.17Z M344 433.17L347.25 433.17L347.25 419.17L344 419.17Z  M360 433.17L362.17 433.17L362.17 419.17L360 419.17Z M368 433.17L372.33 433.17L372.33 419.17L368 419.17Z     M408 433.17L411.25 433.17L411.25 419.17L408 419.17Z M416 433.17L424.65 433.17L424.65 426.17L416 426.17Z M424 433.17L432.65 433.17L432.65 419.17L424 419.17Z M432 433.17L440.65 433.17L440.65 419.17L432 419.17Z M440 433.17L448.65 433.17L448.65 419.17L440 419.17Z M448 433.17L456.65 433.17L456.65 419.17L448 419.17Z M456 433.17L464.65 433.17L464.65 419.17L456 419.17Z M464 433.17L472.65 433.17L472.65 419.17L464 419.17Z M472 433.17L480.65 433.17L480.65 419.17L472 419.17Z M480 433.17L488.65 433.17L488.65 419.17L480 419.17Z M488 433.17L496.65 433.17L496.65 419.17L488 419.17Z M496 433.17L504.65 433.17L504.65 419.17L496 419.17Z M504 433.17L512.65 433.17L512.65 419.17L504 419.17Z M512 433.17L520.65 433.17L520.65 419.17L512 419.17Z M520 433.17L528.65 433.17L528.65 422.67L520 422.67Z M528 433.17L536.65 433.17L536.65 422.67L528 422.67Z M536 433.17L544.65 433.17L544.65 419.17L536 419.17Z M544 433.17L552.65 433.17L552.65 419.17L544 419.17Z M552 433.17L560.65 433.17L560.65 419.17L552 419.17Z M560 433.17L568.65 433.17L568.65 419.17L560 419.17Z M568 433.17L576.65 433.17L576.65 419.17L568 419.17Z M576 433.17L584.65 433.17L584.65 419.17L576 419.17Z M584 433.17L592.65 433.17L592.65 419.17L584 419.17Z M592 433.17L600.65 433.17L600.65 419.17L592 419.17Z M600 433.17L608.65 433.17L608.65 419.17L600 419.17Z M608 433.17L616.65 433.17L616.65 419.17L608 419.17Z M616 433.17L624.65 433.17L624.65 419.17L616 419.17Z M624 433.17L632.65 433.17L632.65 419.17L624 419.17Z M632 433.17L640.65 433.17L640.65 419.17L632 419.17Z M640 433.17L648.65 433.17L648.65 419.17L640 419.17Z M648 433.17L656.65 433.17L656.65 419.17L648 419.17Z M656 433.17L664.65 433.17L664.65 419.17L656 419.17Z M664 433.17L672.65 433.17L672.65 419.17L664 419.17Z M672 433.17L674.17 433.17L674.17 419.17L672 419.17Z                                 M136 449.17L141.41 449.17L141.41 435.17L136 435.17Z M144 449.17L152.65 449.17L152.65 445.67L144 445.67Z M152 449.17L160.65 449.17L160.65 442.17L152 442.17Z M160 449.17L168.65 449.17L168.65 435.17L160 435.17Z M168 449.17L176.65 449.17L176.65 435.17L168 435.17Z M176 449.17L184.65 449.17L184.65 443.92L176 443.92Z M184 449.17L187.25 449.17L187.25 435.17L184 435.17Z M192 449.17L199.57 449.17L199.57 435.17L192 435.17Z M200 449.17L208.65 449.17L208.65 435.17L200 435.17Z M208 449.17L216.65 449.17L216.65 435.17L208 435.17Z M216 449.17L224.65 449.17L224.65 435.17L216 435.17Z M224 449.17L232.65 449.17L232.65 438.67L224 438.67Z M232 449.17L240.65 449.17L240.65 435.17L232 435.17Z M240 449.17L248.65 449.17L248.65 435.17L240 435.17Z M248 449.17L256.65 449.17L256.65 435.17L248 435.17Z M256 449.17L264.65 449.17L264.65 435.17L256 435.17Z M264 449.17L272.65 449.17L272.65 435.17L264 435.17Z M272 449.17L280.65 449.17L280.65 435.17L272 435.17Z M280 449.17L288.65 449.17L288.65 436.92L280 436.92Z M288 449.17L296.65 449.17L296.65 445.67L288 445.67Z M296 449.17L299.25 449.17L299.25 435.17L296 435.17Z  M312 449.17L314.17 449.17L314.17 435.17L312 435.17Z M320 449.17L328.65 449.17L328.65 440.42L320 440.42Z M328 449.17L336.65 449.17L336.65 435.17L328 435.17Z M336 449.17L343.57 449.17L343.57 435.17L336 435.17Z M344 449.17L352.65 449.17L352.65 443.92L344 443.92Z M352 449.17L360.65 449.17L360.65 443.92L352 443.92Z M360 449.17L367.57 449.17L367.57 435.17L360 435.17Z M368 449.17L369.08 449.17L369.08 435.17L368 435.17Z    M400 449.17L401.08 449.17L401.08 435.17L400 435.17Z M408 449.17L410.17 449.17L410.17 435.17L408 435.17Z M416 449.17L424.65 449.17L424.65 438.67L416 438.67Z M424 449.17L432.65 449.17L432.65 435.17L424 435.17Z M432 449.17L440.65 449.17L440.65 435.17L432 435.17Z M440 449.17L448.65 449.17L448.65 440.42L440 440.42Z M448 449.17L456.65 449.17L456.65 435.17L448 435.17Z M456 449.17L464.65 449.17L464.65 435.17L456 435.17Z M464 449.17L472.65 449.17L472.65 435.17L464 435.17Z M472 449.17L480.65 449.17L480.65 435.17L472 435.17Z M480 449.17L488.65 449.17L488.65 435.17L480 435.17Z M488 449.17L496.65 449.17L496.65 435.17L488 435.17Z M496 449.17L504.65 449.17L504.65 435.17L496 435.17Z M504 449.17L512.65 449.17L512.65 435.17L504 435.17Z M512 449.17L520.65 449.17L520.65 435.17L512 435.17Z M520 449.17L528.65 449.17L528.65 435.17L520 435.17Z M528 449.17L536.65 449.17L536.65 435.17L528 435.17Z M536 449.17L544.65 449.17L544.65 435.17L536 435.17Z M544 449.17L552.65 449.17L552.65 435.17L544 435.17Z M552 449.17L560.65 449.17L560.65 435.17L552 435.17Z M560 449.17L568.65 449.17L568.65 435.17L560 435.17Z M568 449.17L576.65 449.17L576.65 435.17L568 435.17Z M576 449.17L584.65 449.17L584.65 435.17L576 435.17Z M584 449.17L592.65 449.17L592.65 435.17L584 435.17Z M592 449.17L600.65 449.17L600.65 435.17L592 435.17Z M600 449.17L608.65 449.17L608.65 435.17L600 435.17Z M608 449.17L616.65 449.17L616.65 435.17L608 435.17Z M616 449.17L624.65 449.17L624.65 435.17L616 435.17Z M624 449.17L632.65 449.17L632.65 435.17L624 435.17Z M632 449.17L640.65 449.17L640.65 435.17L632 435.17Z M640 449.17L648.65 449.17L648.65 435.17L640 435.17Z M648 449.17L656.65 449.17L656.65 435.17L648 435.17Z M656 449.17L664.65 449.17L664.65 438.67L656 438.67Z M664 449.17L669.41 449.17L669.41 435.17L664 435.17Z                                   M144 465.17L145.08 465.17L145.08 451.17L144 451.17Z M152 465.17L157.41 465.17L157.41 451.17L152 451.17Z M160 465.17L167.57 465.17L167.57 451.17L160 451.17Z M168 465.17L176.65 465.17L176.65 461.67L168 461.67Z M176 465.17L180.33 465.17L180.33 451.17L176 451.17Z M184 465.17L192.65 465.17L192.65 454.67L184 454.67Z M192 465.17L200.65 465.17L200.65 456.42L192 456.42Z M200 465.17L208.65 465.17L208.65 451.17L200 451.17Z M208 465.17L216.65 465.17L216.65 451.17L208 451.17Z M216 465.17L224.65 465.17L224.65 451.17L216 451.17Z M224 465.17L232.65 465.17L232.65 451.17L224 451.17Z M232 465.17L240.65 465.17L240.65 451.17L232 451.17Z M240 465.17L248.65 465.17L248.65 451.17L240 451.17Z M248 465.17L256.65 465.17L256.65 451.17L248 451.17Z M256 465.17L264.65 465.17L264.65 451.17L256 451.17Z M264 465.17L272.65 465.17L272.65 451.17L264 451.17Z M272 465.17L280.65 465.17L280.65 451.17L272 451.17Z M280 465.17L281.08 465.17L281.08 451.17L280 451.17Z M288 465.17L294.49 465.17L294.49 451.17L288 451.17Z M296 465.17L300.33 465.17L300.33 451.17L296 451.17Z M304 465.17L306.17 465.17L306.17 451.17L304 451.17Z M312 465.17L320.65 465.17L320.65 454.67L312 454.67Z M320 465.17L328.65 465.17L328.65 456.42L320 456.42Z M328 465.17L331.25 465.17L331.25 451.17L328 451.17Z M336 465.17L344.65 465.17L344.65 454.67L336 454.67Z M344 465.17L352.65 465.17L352.65 451.17L344 451.17Z M352 465.17L360.65 465.17L360.65 451.17L352 451.17Z M360 465.17L368.65 465.17L368.65 451.17L360 451.17Z M368 465.17L376.65 465.17L376.65 454.67L368 454.67Z M376 465.17L383.57 465.17L383.57 451.17L376 451.17Z M384 465.17L390.49 465.17L390.49 451.17L384 451.17Z M392 465.17L400.65 465.17L400.65 458.17L392 458.17Z M400 465.17L408.65 465.17L408.65 458.17L400 458.17Z M408 465.17L416.65 465.17L416.65 459.92L408 459.92Z M416 465.17L424.65 465.17L424.65 454.67L416 454.67Z M424 465.17L432.65 465.17L432.65 451.17L424 451.17Z M432 465.17L440.65 465.17L440.65 451.17L432 451.17Z M440 465.17L448.65 465.17L448.65 451.17L440 451.17Z M448 465.17L456.65 465.17L456.65 451.17L448 451.17Z M456 465.17L464.65 465.17L464.65 451.17L456 451.17Z M464 465.17L472.65 465.17L472.65 451.17L464 451.17Z M472 465.17L480.65 465.17L480.65 451.17L472 451.17Z M480 465.17L488.65 465.17L488.65 451.17L480 451.17Z M488 465.17L496.65 465.17L496.65 451.17L488 451.17Z M496 465.17L504.65 465.17L504.65 451.17L496 451.17Z M504 465.17L512.65 465.17L512.65 451.17L504 451.17Z M512 465.17L520.65 465.17L520.65 451.17L512 451.17Z M520 465.17L528.65 465.17L528.65 451.17L520 451.17Z M528 465.17L536.65 465.17L536.65 451.17L528 451.17Z M536 465.17L544.65 465.17L544.65 451.17L536 451.17Z M544 465.17L552.65 465.17L552.65 451.17L544 451.17Z M552 465.17L560.65 465.17L560.65 451.17L552 451.17Z M560 465.17L568.65 465.17L568.65 451.17L560 451.17Z M568 465.17L576.65 465.17L576.65 451.17L568 451.17Z M576 465.17L584.65 465.17L584.65 451.17L576 451.17Z M584 465.17L592.65 465.17L592.65 451.17L584 451.17Z M592 465.17L600.65 465.17L600.65 451.17L592 451.17Z M600 465.17L608.65 465.17L608.65 451.17L600 451.17Z M608 465.17L616.65 465.17L616.65 451.17L608 451.17Z M616 465.17L624.65 465.17L624.65 451.17L616 451.17Z M624 465.17L632.65 465.17L632.65 451.17L624 451.17Z M632 465.17L640.65 465.17L640.65 451.17L632 451.17Z M640 465.17L648.65 465.17L648.65 456.42L640 456.42Z M648 465.17L654.49 465.17L654.49 451.17L648 451.17Z M656 465.17L657.08 465.17L657.08 451.17L656 451.17Z                                      M160 481.17L161.08 481.17L161.08 467.17L160 467.17Z M168 481.17L176.65 481.17L176.65 479.42L168 479.42Z M176 481.17L178.17 481.17L178.17 467.17L176 467.17Z M184 481.17L185.08 481.17L185.08 467.17L184 467.17Z M192 481.17L200.65 481.17L200.65 475.92L192 475.92Z M200 481.17L208.65 481.17L208.65 467.17L200 467.17Z M208 481.17L216.65 481.17L216.65 467.17L208 467.17Z M216 481.17L224.65 481.17L224.65 467.17L216 467.17Z M224 481.17L232.65 481.17L232.65 467.17L224 467.17Z M232 481.17L240.65 481.17L240.65 467.17L232 467.17Z M240 481.17L248.65 481.17L248.65 467.17L240 467.17Z M248 481.17L256.65 481.17L256.65 467.17L248 467.17Z M256 481.17L264.65 481.17L264.65 467.17L256 467.17Z M264 481.17L272.65 481.17L272.65 467.17L264 467.17Z M272 481.17L280.65 481.17L280.65 467.17L272 467.17Z M280 481.17L288.65 481.17L288.65 472.42L280 472.42Z M288 481.17L291.25 481.17L291.25 467.17L288 467.17Z M296 481.17L298.17 481.17L298.17 467.17L296 467.17Z M304 481.17L312.65 481.17L312.65 470.67L304 470.67Z M312 481.17L320.65 481.17L320.65 475.92L312 475.92Z M320 481.17L321.08 481.17L321.08 467.17L320 467.17Z  M336 481.17L337.08 481.17L337.08 467.17L336 467.17Z M344 481.17L348.33 481.17L348.33 467.17L344 467.17Z M352 481.17L359.57 481.17L359.57 467.17L352 467.17Z M360 481.17L368.65 481.17L368.65 477.67L360 477.67Z M368 481.17L376.65 481.17L376.65 474.17L368 474.17Z M376 481.17L384.65 481.17L384.65 467.17L376 467.17Z M384 481.17L392.65 481.17L392.65 467.17L384 467.17Z M392 481.17L400.65 481.17L400.65 467.17L392 467.17Z M400 481.17L408.65 481.17L408.65 467.17L400 467.17Z M408 481.17L416.65 481.17L416.65 467.17L408 467.17Z M416 481.17L424.65 481.17L424.65 467.17L416 467.17Z M424 481.17L432.65 481.17L432.65 467.17L424 467.17Z M432 481.17L440.65 481.17L440.65 467.17L432 467.17Z M440 481.17L448.65 481.17L448.65 467.17L440 467.17Z M448 481.17L456.65 481.17L456.65 467.17L448 467.17Z M456 481.17L464.65 481.17L464.65 467.17L456 467.17Z M464 481.17L472.65 481.17L472.65 467.17L464 467.17Z M472 481.17L480.65 481.17L480.65 467.17L472 467.17Z M480 481.17L488.65 481.17L488.65 467.17L480 467.17Z M488 481.17L496.65 481.17L496.65 467.17L488 467.17Z M496 481.17L504.65 481.17L504.65 467.17L496 467.17Z M504 481.17L512.65 481.17L512.65 467.17L504 467.17Z M512 481.17L520.65 481.17L520.65 467.17L512 467.17Z M520 481.17L528.65 481.17L528.65 467.17L520 467.17Z M528 481.17L536.65 481.17L536.65 467.17L528 467.17Z M536 481.17L544.65 481.17L544.65 467.17L536 467.17Z M544 481.17L552.65 481.17L552.65 467.17L544 467.17Z M552 481.17L560.65 481.17L560.65 467.17L552 467.17Z M560 481.17L568.65 481.17L568.65 467.17L560 467.17Z M568 481.17L576.65 481.17L576.65 467.17L568 467.17Z M576 481.17L584.65 481.17L584.65 467.17L576 467.17Z M584 481.17L592.65 481.17L592.65 467.17L584 467.17Z M592 481.17L600.65 481.17L600.65 467.17L592 467.17Z M600 481.17L608.65 481.17L608.65 467.17L600 467.17Z M608 481.17L616.65 481.17L616.65 467.17L608 467.17Z M616 481.17L624.65 481.17L624.65 467.17L616 467.17Z M624 481.17L632.65 481.17L632.65 467.17L624 467.17Z M632 481.17L640.65 481.17L640.65 474.17L632 474.17Z M640 481.17L641.08 481.17L641.08 467.17L640 467.17Z                                         M168 497.17L170.17 497.17L170.17 483.17L168 483.17Z M176 497.17L182.49 497.17L182.49 483.17L176 483.17Z M184 497.17L192.65 497.17L192.65 490.17L184 490.17Z M192 497.17L200.65 497.17L200.65 488.42L192 488.42Z M200 497.17L208.65 497.17L208.65 483.17L200 483.17Z M208 497.17L216.65 497.17L216.65 483.17L208 483.17Z M216 497.17L224.65 497.17L224.65 483.17L216 483.17Z M224 497.17L232.65 497.17L232.65 483.17L224 483.17Z M232 497.17L240.65 497.17L240.65 483.17L232 483.17Z M240 497.17L248.65 497.17L248.65 483.17L240 483.17Z M248 497.17L256.65 497.17L256.65 483.17L248 483.17Z M256 497.17L264.65 497.17L264.65 491.92L256 491.92Z M264 497.17L272.65 497.17L272.65 491.92L264 491.92Z M272 497.17L280.65 497.17L280.65 483.17L272 483.17Z M280 497.17L287.57 497.17L287.57 483.17L280 483.17Z M288 497.17L289.08 497.17L289.08 483.17L288 483.17Z M296 497.17L304.65 497.17L304.65 488.42L296 488.42Z M304 497.17L312.65 497.17L312.65 495.42L304 495.42Z M312 497.17L313.08 497.17L313.08 483.17L312 483.17Z        M376 497.17L377.08 497.17L377.08 483.17L376 483.17Z M384 497.17L390.49 497.17L390.49 483.17L384 483.17Z M392 497.17L400.65 497.17L400.65 483.17L392 483.17Z M400 497.17L408.65 497.17L408.65 483.17L400 483.17Z M408 497.17L416.65 497.17L416.65 483.17L408 483.17Z M416 497.17L424.65 497.17L424.65 483.17L416 483.17Z M424 497.17L432.65 497.17L432.65 483.17L424 483.17Z M432 497.17L440.65 497.17L440.65 483.17L432 483.17Z M440 497.17L448.65 497.17L448.65 483.17L440 483.17Z M448 497.17L456.65 497.17L456.65 483.17L448 483.17Z M456 497.17L464.65 497.17L464.65 483.17L456 483.17Z M464 497.17L472.65 497.17L472.65 483.17L464 483.17Z M472 497.17L480.65 497.17L480.65 483.17L472 483.17Z M480 497.17L488.65 497.17L488.65 483.17L480 483.17Z M488 497.17L496.65 497.17L496.65 483.17L488 483.17Z M496 497.17L504.65 497.17L504.65 483.17L496 483.17Z M504 497.17L512.65 497.17L512.65 483.17L504 483.17Z M512 497.17L520.65 497.17L520.65 483.17L512 483.17Z M520 497.17L528.65 497.17L528.65 483.17L520 483.17Z M528 497.17L536.65 497.17L536.65 483.17L528 483.17Z M536 497.17L544.65 497.17L544.65 483.17L536 483.17Z M544 497.17L552.65 497.17L552.65 483.17L544 483.17Z M552 497.17L560.65 497.17L560.65 483.17L552 483.17Z M560 497.17L568.65 497.17L568.65 483.17L560 483.17Z M568 497.17L576.65 497.17L576.65 483.17L568 483.17Z M576 497.17L584.65 497.17L584.65 483.17L576 483.17Z M584 497.17L592.65 497.17L592.65 483.17L584 483.17Z M592 497.17L600.65 497.17L600.65 483.17L592 483.17Z M600 497.17L608.65 497.17L608.65 483.17L600 483.17Z M608 497.17L616.65 497.17L616.65 490.17L608 490.17Z M616 497.17L624.65 497.17L624.65 490.17L616 490.17Z M624 497.17L632.65 497.17L632.65 495.42L624 495.42Z M632 497.17L634.17 497.17L634.17 483.17L632 483.17Z                                            M184 513.17L185.08 513.17L185.08 499.17L184 499.17Z M192 513.17L200.65 513.17L200.65 507.92L192 507.92Z M200 513.17L208.65 513.17L208.65 499.17L200 499.17Z M208 513.17L216.65 513.17L216.65 499.17L208 499.17Z M216 513.17L224.65 513.17L224.65 499.17L216 499.17Z M224 513.17L232.65 513.17L232.65 499.17L224 499.17Z M232 513.17L240.65 513.17L240.65 499.17L232 499.17Z M240 513.17L248.65 513.17L248.65 499.17L240 499.17Z M248 513.17L256.65 513.17L256.65 499.17L248 499.17Z M256 513.17L262.49 513.17L262.49 499.17L256 499.17Z M264 513.17L269.41 513.17L269.41 499.17L264 499.17Z M272 513.17L280.65 513.17L280.65 506.17L272 506.17Z M280 513.17L281.08 513.17L281.08 499.17L280 499.17Z M288 513.17L296.65 513.17L296.65 506.17L288 506.17Z M296 513.17L303.57 513.17L303.57 499.17L296 499.17Z      M344 513.17L345.08 513.17L345.08 499.17L344 499.17Z     M384 513.17L390.49 513.17L390.49 499.17L384 499.17Z M392 513.17L400.65 513.17L400.65 499.17L392 499.17Z M400 513.17L408.65 513.17L408.65 502.67L400 502.67Z M408 513.17L414.49 513.17L414.49 499.17L408 499.17Z M416 513.17L424.65 513.17L424.65 509.67L416 509.67Z M424 513.17L432.65 513.17L432.65 500.92L424 500.92Z M432 513.17L440.65 513.17L440.65 499.17L432 499.17Z M440 513.17L448.65 513.17L448.65 499.17L440 499.17Z M448 513.17L456.65 513.17L456.65 499.17L448 499.17Z M456 513.17L464.65 513.17L464.65 499.17L456 499.17Z M464 513.17L472.65 513.17L472.65 499.17L464 499.17Z M472 513.17L480.65 513.17L480.65 499.17L472 499.17Z M480 513.17L488.65 513.17L488.65 499.17L480 499.17Z M488 513.17L496.65 513.17L496.65 499.17L488 499.17Z M496 513.17L504.65 513.17L504.65 499.17L496 499.17Z M504 513.17L512.65 513.17L512.65 499.17L504 499.17Z M512 513.17L520.65 513.17L520.65 499.17L512 499.17Z M520 513.17L528.65 513.17L528.65 499.17L520 499.17Z M528 513.17L536.65 513.17L536.65 499.17L528 499.17Z M536 513.17L544.65 513.17L544.65 499.17L536 499.17Z M544 513.17L552.65 513.17L552.65 499.17L544 499.17Z M552 513.17L560.65 513.17L560.65 499.17L552 499.17Z M560 513.17L568.65 513.17L568.65 499.17L560 499.17Z M568 513.17L576.65 513.17L576.65 499.17L568 499.17Z M576 513.17L584.65 513.17L584.65 499.17L576 499.17Z M584 513.17L592.65 513.17L592.65 499.17L584 499.17Z M592 513.17L600.65 513.17L600.65 499.17L592 499.17Z M600 513.17L608.65 513.17L608.65 499.17L600 499.17Z M608 513.17L616.65 513.17L616.65 511.42L608 511.42Z                                               M184 529.17L185.08 529.17L185.08 515.17L184 515.17Z M192 529.17L200.65 529.17L200.65 523.92L192 523.92Z M200 529.17L208.65 529.17L208.65 515.17L200 515.17Z M208 529.17L216.65 529.17L216.65 515.17L208 515.17Z M216 529.17L224.65 529.17L224.65 515.17L216 515.17Z M224 529.17L232.65 529.17L232.65 515.17L224 515.17Z M232 529.17L240.65 529.17L240.65 515.17L232 515.17Z M240 529.17L248.65 529.17L248.65 515.17L240 515.17Z M248 529.17L256.65 529.17L256.65 515.17L248 515.17Z M256 529.17L263.57 529.17L263.57 515.17L256 515.17Z M264 529.17L272.65 529.17L272.65 525.67L264 525.67Z M272 529.17L275.25 529.17L275.25 515.17L272 515.17Z M280 529.17L288.65 529.17L288.65 525.67L280 525.67Z M288 529.17L295.57 529.17L295.57 515.17L288 515.17Z    M320 529.17L324.33 529.17L324.33 515.17L320 515.17Z M328 529.17L329.08 529.17L329.08 515.17L328 515.17Z  M344 529.17L345.08 529.17L345.08 515.17L344 515.17Z M352 529.17L355.25 529.17L355.25 515.17L352 515.17Z    M384 529.17L392.65 529.17L392.65 523.92L384 523.92Z M392 529.17L400.65 529.17L400.65 515.17L392 515.17Z M400 529.17L408.65 529.17L408.65 525.67L400 525.67Z   M424 529.17L432.65 529.17L432.65 525.67L424 525.67Z M432 529.17L440.65 529.17L440.65 515.17L432 515.17Z M440 529.17L448.65 529.17L448.65 515.17L440 515.17Z M448 529.17L456.65 529.17L456.65 515.17L448 515.17Z M456 529.17L464.65 529.17L464.65 515.17L456 515.17Z M464 529.17L472.65 529.17L472.65 515.17L464 515.17Z M472 529.17L480.65 529.17L480.65 515.17L472 515.17Z M480 529.17L488.65 529.17L488.65 515.17L480 515.17Z M488 529.17L496.65 529.17L496.65 515.17L488 515.17Z M496 529.17L504.65 529.17L504.65 515.17L496 515.17Z M504 529.17L512.65 529.17L512.65 515.17L504 515.17Z M512 529.17L520.65 529.17L520.65 515.17L512 515.17Z M520 529.17L528.65 529.17L528.65 515.17L520 515.17Z M528 529.17L536.65 529.17L536.65 515.17L528 515.17Z M536 529.17L544.65 529.17L544.65 515.17L536 515.17Z M544 529.17L552.65 529.17L552.65 515.17L544 515.17Z M552 529.17L560.65 529.17L560.65 515.17L552 515.17Z M560 529.17L568.65 529.17L568.65 515.17L560 515.17Z M568 529.17L576.65 529.17L576.65 515.17L568 515.17Z M576 529.17L584.65 529.17L584.65 515.17L576 515.17Z M584 529.17L592.65 529.17L592.65 515.17L584 515.17Z M592 529.17L600.65 529.17L600.65 515.17L592 515.17Z M600 529.17L608.65 529.17L608.65 515.17L600 515.17Z M608 529.17L616.65 529.17L616.65 525.67L608 525.67Z M616 529.17L617.08 529.17L617.08 515.17L616 515.17Z                                               M192 545.17L200.65 545.17L200.65 536.42L192 536.42Z M200 545.17L208.65 545.17L208.65 531.17L200 531.17Z M208 545.17L216.65 545.17L216.65 531.17L208 531.17Z M216 545.17L224.65 545.17L224.65 531.17L216 531.17Z M224 545.17L232.65 545.17L232.65 531.17L224 531.17Z M232 545.17L240.65 545.17L240.65 531.17L232 531.17Z M240 545.17L248.65 545.17L248.65 531.17L240 531.17Z M248 545.17L256.65 545.17L256.65 534.67L248 534.67Z M256 545.17L264.65 545.17L264.65 543.42L256 543.42Z M264 545.17L272.65 545.17L272.65 538.17L264 538.17Z M272 545.17L276.33 545.17L276.33 531.17L272 531.17Z M280 545.17L288.65 545.17L288.65 539.92L280 539.92Z  M296 545.17L297.08 545.17L297.08 531.17L296 531.17Z M304 545.17L306.17 545.17L306.17 531.17L304 531.17Z M312 545.17L313.08 545.17L313.08 531.17L312 531.17Z M320 545.17L321.08 545.17L321.08 531.17L320 531.17Z M328 545.17L332.33 545.17L332.33 531.17L328 531.17Z M336 545.17L337.08 545.17L337.08 531.17L336 531.17Z  M352 545.17L355.25 545.17L355.25 531.17L352 531.17Z M360 545.17L366.49 545.17L366.49 531.17L360 531.17Z M368 545.17L374.49 545.17L374.49 531.17L368 531.17Z M376 545.17L383.57 545.17L383.57 531.17L376 531.17Z M384 545.17L390.49 545.17L390.49 531.17L384 531.17Z M392 545.17L399.57 545.17L399.57 531.17L392 531.17Z M400 545.17L404.33 545.17L404.33 531.17L400 531.17Z M408 545.17L412.33 545.17L412.33 531.17L408 531.17Z M416 545.17L422.49 545.17L422.49 531.17L416 531.17Z M424 545.17L432.65 545.17L432.65 536.42L424 536.42Z M432 545.17L440.65 545.17L440.65 531.17L432 531.17Z M440 545.17L448.65 545.17L448.65 531.17L440 531.17Z M448 545.17L456.65 545.17L456.65 531.17L448 531.17Z M456 545.17L464.65 545.17L464.65 531.17L456 531.17Z M464 545.17L472.65 545.17L472.65 531.17L464 531.17Z M472 545.17L480.65 545.17L480.65 531.17L472 531.17Z M480 545.17L488.65 545.17L488.65 531.17L480 531.17Z M488 545.17L496.65 545.17L496.65 531.17L488 531.17Z M496 545.17L504.65 545.17L504.65 531.17L496 531.17Z M504 545.17L512.65 545.17L512.65 531.17L504 531.17Z M512 545.17L520.65 545.17L520.65 531.17L512 531.17Z M520 545.17L528.65 545.17L528.65 531.17L520 531.17Z M528 545.17L536.65 545.17L536.65 531.17L528 531.17Z M536 545.17L544.65 545.17L544.65 531.17L536 531.17Z M544 545.17L552.65 545.17L552.65 531.17L544 531.17Z M552 545.17L560.65 545.17L560.65 531.17L552 531.17Z M560 545.17L568.65 545.17L568.65 531.17L560 531.17Z M568 545.17L576.65 545.17L576.65 531.17L568 531.17Z M576 545.17L584.65 545.17L584.65 531.17L576 531.17Z M584 545.17L592.65 545.17L592.65 531.17L584 531.17Z M592 545.17L600.65 545.17L600.65 531.17L592 531.17Z M600 545.17L608.65 545.17L608.65 531.17L600 531.17Z M608 545.17L616.65 545.17L616.65 538.17L608 538.17Z                                                M192 561.17L200.65 561.17L200.65 554.17L192 554.17Z M200 561.17L208.65 561.17L208.65 547.17L200 547.17Z M208 561.17L216.65 561.17L216.65 547.17L208 547.17Z M216 561.17L224.65 561.17L224.65 547.17L216 547.17Z M224 561.17L232.65 561.17L232.65 547.17L224 547.17Z M232 561.17L240.65 561.17L240.65 547.17L232 547.17Z M240 561.17L248.65 561.17L248.65 547.17L240 547.17Z M248 561.17L256.65 561.17L256.65 547.17L248 547.17Z M256 561.17L264.65 561.17L264.65 547.17L256 547.17Z M264 561.17L272.65 561.17L272.65 555.92L264 555.92Z M272 561.17L280.65 561.17L280.65 559.42L272 559.42Z M280 561.17L284.33 561.17L284.33 547.17L280 547.17Z  M296 561.17L304.65 561.17L304.65 554.17L296 554.17Z M304 561.17L312.65 561.17L312.65 557.67L304 557.67Z M312 561.17L318.49 561.17L318.49 547.17L312 547.17Z M320 561.17L327.57 561.17L327.57 547.17L320 547.17Z M328 561.17L336.65 561.17L336.65 559.42L328 559.42Z M336 561.17L344.65 561.17L344.65 552.42L336 552.42Z M344 561.17L352.65 561.17L352.65 548.92L344 548.92Z M352 561.17L360.65 561.17L360.65 547.17L352 547.17Z M360 561.17L368.65 561.17L368.65 550.67L360 550.67Z M368 561.17L376.65 561.17L376.65 550.67L368 550.67Z M376 561.17L384.65 561.17L384.65 548.92L376 548.92Z M384 561.17L392.65 561.17L392.65 548.92L384 548.92Z M392 561.17L400.65 561.17L400.65 548.92L392 548.92Z M400 561.17L408.65 561.17L408.65 547.17L400 547.17Z M408 561.17L416.65 561.17L416.65 547.17L408 547.17Z M416 561.17L424.65 561.17L424.65 547.17L416 547.17Z M424 561.17L432.65 561.17L432.65 547.17L424 547.17Z M432 561.17L440.65 561.17L440.65 547.17L432 547.17Z M440 561.17L448.65 561.17L448.65 547.17L440 547.17Z M448 561.17L456.65 561.17L456.65 547.17L448 547.17Z M456 561.17L464.65 561.17L464.65 547.17L456 547.17Z M464 561.17L472.65 561.17L472.65 547.17L464 547.17Z M472 561.17L480.65 561.17L480.65 547.17L472 547.17Z M480 561.17L488.65 561.17L488.65 547.17L480 547.17Z M488 561.17L496.65 561.17L496.65 547.17L488 547.17Z M496 561.17L504.65 561.17L504.65 547.17L496 547.17Z M504 561.17L512.65 561.17L512.65 547.17L504 547.17Z M512 561.17L520.65 561.17L520.65 547.17L512 547.17Z M520 561.17L528.65 561.17L528.65 547.17L520 547.17Z M528 561.17L536.65 561.17L536.65 547.17L528 547.17Z M536 561.17L544.65 561.17L544.65 547.17L536 547.17Z M544 561.17L552.65 561.17L552.65 547.17L544 547.17Z M552 561.17L560.65 561.17L560.65 547.17L552 547.17Z M560 561.17L568.65 561.17L568.65 547.17L560 547.17Z M568 561.17L576.65 561.17L576.65 547.17L568 547.17Z M576 561.17L584.65 561.17L584.65 547.17L576 547.17Z M584 561.17L592.65 561.17L592.65 547.17L584 547.17Z M592 561.17L600.65 561.17L600.65 547.17L592 547.17Z M600 561.17L608.65 561.17L608.65 547.17L600 547.17Z M608 561.17L616.65 561.17L616.65 557.67L608 557.67Z                                                M192 577.17L196.33 577.17L196.33 563.17L192 563.17Z M200 577.17L208.65 577.17L208.65 563.17L200 563.17Z M208 577.17L216.65 577.17L216.65 563.17L208 563.17Z M216 577.17L224.65 577.17L224.65 563.17L216 563.17Z M224 577.17L232.65 577.17L232.65 563.17L224 563.17Z M232 577.17L240.65 577.17L240.65 563.17L232 563.17Z M240 577.17L248.65 577.17L248.65 563.17L240 563.17Z M248 577.17L256.65 577.17L256.65 563.17L248 563.17Z M256 577.17L264.65 577.17L264.65 563.17L256 563.17Z M264 577.17L272.65 577.17L272.65 570.17L264 570.17Z M272 577.17L279.57 577.17L279.57 563.17L272 563.17Z M280 577.17L287.57 577.17L287.57 563.17L280 563.17Z M288 577.17L290.17 577.17L290.17 563.17L288 563.17Z M296 577.17L304.65 577.17L304.65 568.42L296 568.42Z M304 577.17L312.65 577.17L312.65 575.42L304 575.42Z M312 577.17L319.57 577.17L319.57 563.17L312 563.17Z M320 577.17L328.65 577.17L328.65 573.67L320 573.67Z M328 577.17L333.41 577.17L333.41 563.17L328 563.17Z M336 577.17L337.08 577.17L337.08 563.17L336 563.17Z M344 577.17L345.08 577.17L345.08 563.17L344 563.17Z M352 577.17L353.08 577.17L353.08 563.17L352 563.17Z M360 577.17L365.41 577.17L365.41 563.17L360 563.17Z M368 577.17L369.08 577.17L369.08 563.17L368 563.17Z M376 577.17L377.08 577.17L377.08 563.17L376 563.17Z M384 577.17L386.17 577.17L386.17 563.17L384 563.17Z M392 577.17L394.17 577.17L394.17 563.17L392 563.17Z M400 577.17L406.49 577.17L406.49 563.17L400 563.17Z M408 577.17L414.49 577.17L414.49 563.17L408 563.17Z M416 577.17L424.65 577.17L424.65 575.42L416 575.42Z M424 577.17L432.65 577.17L432.65 568.42L424 568.42Z M432 577.17L440.65 577.17L440.65 563.17L432 563.17Z M440 577.17L448.65 577.17L448.65 563.17L440 563.17Z M448 577.17L456.65 577.17L456.65 563.17L448 563.17Z M456 577.17L464.65 577.17L464.65 563.17L456 563.17Z M464 577.17L472.65 577.17L472.65 563.17L464 563.17Z M472 577.17L480.65 577.17L480.65 563.17L472 563.17Z M480 577.17L488.65 577.17L488.65 563.17L480 563.17Z M488 577.17L496.65 577.17L496.65 563.17L488 563.17Z M496 577.17L504.65 577.17L504.65 563.17L496 563.17Z M504 577.17L512.65 577.17L512.65 563.17L504 563.17Z M512 577.17L520.65 577.17L520.65 563.17L512 563.17Z M520 577.17L528.65 577.17L528.65 563.17L520 563.17Z M528 577.17L536.65 577.17L536.65 563.17L528 563.17Z M536 577.17L544.65 577.17L544.65 563.17L536 563.17Z M544 577.17L552.65 577.17L552.65 563.17L544 563.17Z M552 577.17L560.65 577.17L560.65 563.17L552 563.17Z M560 577.17L568.65 577.17L568.65 563.17L560 563.17Z M568 577.17L576.65 577.17L576.65 563.17L568 563.17Z M576 577.17L584.65 577.17L584.65 563.17L576 563.17Z M584 577.17L592.65 577.17L592.65 563.17L584 563.17Z M592 577.17L600.65 577.17L600.65 563.17L592 563.17Z M600 577.17L608.65 577.17L608.65 564.92L600 564.92Z M608 577.17L611.25 577.17L611.25 563.17L608 563.17Z                                                 M200 593.17L205.41 593.17L205.41 579.17L200 579.17Z M208 593.17L216.65 593.17L216.65 579.17L208 579.17Z M216 593.17L224.65 593.17L224.65 579.17L216 579.17Z M224 593.17L232.65 593.17L232.65 579.17L224 579.17Z M232 593.17L240.65 593.17L240.65 579.17L232 579.17Z M240 593.17L248.65 593.17L248.65 579.17L240 579.17Z M248 593.17L256.65 593.17L256.65 579.17L248 579.17Z M256 593.17L264.65 593.17L264.65 579.17L256 579.17Z M264 593.17L272.65 593.17L272.65 579.17L264 579.17Z M272 593.17L280.65 593.17L280.65 587.92L272 587.92Z M280 593.17L288.65 593.17L288.65 582.67L280 582.67Z M288 593.17L296.65 593.17L296.65 579.17L288 579.17Z M296 593.17L301.41 593.17L301.41 579.17L296 579.17Z M304 593.17L305.08 593.17L305.08 579.17L304 579.17Z  M320 593.17L327.57 593.17L327.57 579.17L320 579.17Z M328 593.17L336.65 593.17L336.65 582.67L328 582.67Z M336 593.17L344.65 593.17L344.65 580.92L336 580.92Z M344 593.17L352.65 593.17L352.65 582.67L344 582.67Z M352 593.17L360.65 593.17L360.65 582.67L352 582.67Z M360 593.17L368.65 593.17L368.65 584.42L360 584.42Z M368 593.17L376.65 593.17L376.65 584.42L368 584.42Z M376 593.17L384.65 593.17L384.65 582.67L376 582.67Z M384 593.17L392.65 593.17L392.65 579.17L384 579.17Z M392 593.17L400.65 593.17L400.65 579.17L392 579.17Z M400 593.17L408.65 593.17L408.65 579.17L400 579.17Z M408 593.17L416.65 593.17L416.65 579.17L408 579.17Z M416 593.17L424.65 593.17L424.65 579.17L416 579.17Z M424 593.17L432.65 593.17L432.65 579.17L424 579.17Z M432 593.17L440.65 593.17L440.65 579.17L432 579.17Z M440 593.17L448.65 593.17L448.65 579.17L440 579.17Z M448 593.17L456.65 593.17L456.65 579.17L448 579.17Z M456 593.17L464.65 593.17L464.65 579.17L456 579.17Z M464 593.17L472.65 593.17L472.65 579.17L464 579.17Z M472 593.17L480.65 593.17L480.65 579.17L472 579.17Z M480 593.17L488.65 593.17L488.65 579.17L480 579.17Z M488 593.17L496.65 593.17L496.65 579.17L488 579.17Z M496 593.17L504.65 593.17L504.65 579.17L496 579.17Z M504 593.17L512.65 593.17L512.65 579.17L504 579.17Z M512 593.17L520.65 593.17L520.65 579.17L512 579.17Z M520 593.17L528.65 593.17L528.65 579.17L520 579.17Z M528 593.17L536.65 593.17L536.65 579.17L528 579.17Z M536 593.17L544.65 593.17L544.65 579.17L536 579.17Z M544 593.17L552.65 593.17L552.65 579.17L544 579.17Z M552 593.17L560.65 593.17L560.65 579.17L552 579.17Z M560 593.17L568.65 593.17L568.65 579.17L560 579.17Z M568 593.17L576.65 593.17L576.65 579.17L568 579.17Z M576 593.17L584.65 593.17L584.65 579.17L576 579.17Z M584 593.17L592.65 593.17L592.65 579.17L584 579.17Z M592 593.17L600.65 593.17L600.65 580.92L592 580.92Z M600 593.17L602.17 593.17L602.17 579.17L600 579.17Z                                                   M208 609.17L212.33 609.17L212.33 595.17L208 595.17Z M216 609.17L224.65 609.17L224.65 602.17L216 602.17Z M224 609.17L232.65 609.17L232.65 595.17L224 595.17Z M232 609.17L240.65 609.17L240.65 595.17L232 595.17Z M240 609.17L248.65 609.17L248.65 595.17L240 595.17Z M248 609.17L256.65 609.17L256.65 595.17L248 595.17Z M256 609.17L264.65 609.17L264.65 595.17L256 595.17Z M264 609.17L272.65 609.17L272.65 595.17L264 595.17Z M272 609.17L280.65 609.17L280.65 595.17L272 595.17Z M280 609.17L288.65 609.17L288.65 595.17L280 595.17Z M288 609.17L296.65 609.17L296.65 596.92L288 596.92Z M296 609.17L304.65 609.17L304.65 598.67L296 598.67Z M304 609.17L312.65 609.17L312.65 605.67L304 605.67Z M312 609.17L320.65 609.17L320.65 598.67L312 598.67Z M320 609.17L328.65 609.17L328.65 595.17L320 595.17Z M328 609.17L336.65 609.17L336.65 600.42L328 600.42Z M336 609.17L343.57 609.17L343.57 595.17L336 595.17Z M344 609.17L352.65 609.17L352.65 596.92L344 596.92Z M352 609.17L360.65 609.17L360.65 595.17L352 595.17Z M360 609.17L368.65 609.17L368.65 595.17L360 595.17Z M368 609.17L376.65 609.17L376.65 595.17L368 595.17Z M376 609.17L384.65 609.17L384.65 595.17L376 595.17Z M384 609.17L392.65 609.17L392.65 595.17L384 595.17Z M392 609.17L400.65 609.17L400.65 595.17L392 595.17Z M400 609.17L408.65 609.17L408.65 595.17L400 595.17Z M408 609.17L416.65 609.17L416.65 595.17L408 595.17Z M416 609.17L424.65 609.17L424.65 595.17L416 595.17Z M424 609.17L432.65 609.17L432.65 595.17L424 595.17Z M432 609.17L440.65 609.17L440.65 595.17L432 595.17Z M440 609.17L448.65 609.17L448.65 595.17L440 595.17Z M448 609.17L456.65 609.17L456.65 595.17L448 595.17Z M456 609.17L464.65 609.17L464.65 595.17L456 595.17Z M464 609.17L472.65 609.17L472.65 595.17L464 595.17Z M472 609.17L480.65 609.17L480.65 595.17L472 595.17Z M480 609.17L488.65 609.17L488.65 595.17L480 595.17Z M488 609.17L496.65 609.17L496.65 595.17L488 595.17Z M496 609.17L504.65 609.17L504.65 595.17L496 595.17Z M504 609.17L512.65 609.17L512.65 595.17L504 595.17Z M512 609.17L520.65 609.17L520.65 595.17L512 595.17Z M520 609.17L528.65 609.17L528.65 595.17L520 595.17Z M528 609.17L536.65 609.17L536.65 595.17L528 595.17Z M536 609.17L544.65 609.17L544.65 595.17L536 595.17Z M544 609.17L552.65 609.17L552.65 595.17L544 595.17Z M552 609.17L560.65 609.17L560.65 595.17L552 595.17Z M560 609.17L568.65 609.17L568.65 595.17L560 595.17Z M568 609.17L576.65 609.17L576.65 595.17L568 595.17Z M576 609.17L584.65 609.17L584.65 595.17L576 595.17Z M584 609.17L592.65 609.17L592.65 603.92L584 603.92Z M592 609.17L596.33 609.17L596.33 595.17L592 595.17Z                                                     M216 625.17L217.08 625.17L217.08 611.17L216 611.17Z M224 625.17L231.57 625.17L231.57 611.17L224 611.17Z M232 625.17L240.65 625.17L240.65 614.67L232 614.67Z M240 625.17L248.65 625.17L248.65 611.17L240 611.17Z M248 625.17L256.65 625.17L256.65 611.17L248 611.17Z M256 625.17L264.65 625.17L264.65 611.17L256 611.17Z M264 625.17L272.65 625.17L272.65 611.17L264 611.17Z M272 625.17L280.65 625.17L280.65 611.17L272 611.17Z M280 625.17L288.65 625.17L288.65 611.17L280 611.17Z M288 625.17L296.65 625.17L296.65 612.92L288 612.92Z M296 625.17L304.65 625.17L304.65 611.17L296 611.17Z M304 625.17L312.65 625.17L312.65 611.17L304 611.17Z M312 625.17L320.65 625.17L320.65 611.17L312 611.17Z M320 625.17L328.65 625.17L328.65 614.67L320 614.67Z M328 625.17L336.65 625.17L336.65 618.17L328 618.17Z M336 625.17L344.65 625.17L344.65 611.17L336 611.17Z M344 625.17L352.65 625.17L352.65 611.17L344 611.17Z M352 625.17L360.65 625.17L360.65 611.17L352 611.17Z M360 625.17L368.65 625.17L368.65 612.92L360 612.92Z M368 625.17L376.65 625.17L376.65 611.17L368 611.17Z M376 625.17L384.65 625.17L384.65 611.17L376 611.17Z M384 625.17L392.65 625.17L392.65 611.17L384 611.17Z M392 625.17L400.65 625.17L400.65 611.17L392 611.17Z M400 625.17L408.65 625.17L408.65 611.17L400 611.17Z M408 625.17L416.65 625.17L416.65 611.17L408 611.17Z M416 625.17L424.65 625.17L424.65 611.17L416 611.17Z M424 625.17L432.65 625.17L432.65 611.17L424 611.17Z M432 625.17L440.65 625.17L440.65 611.17L432 611.17Z M440 625.17L448.65 625.17L448.65 611.17L440 611.17Z M448 625.17L456.65 625.17L456.65 611.17L448 611.17Z M456 625.17L464.65 625.17L464.65 611.17L456 611.17Z M464 625.17L472.65 625.17L472.65 611.17L464 611.17Z M472 625.17L480.65 625.17L480.65 611.17L472 611.17Z M480 625.17L488.65 625.17L488.65 611.17L480 611.17Z M488 625.17L496.65 625.17L496.65 611.17L488 611.17Z M496 625.17L504.65 625.17L504.65 611.17L496 611.17Z M504 625.17L512.65 625.17L512.65 611.17L504 611.17Z M512 625.17L520.65 625.17L520.65 611.17L512 611.17Z M520 625.17L528.65 625.17L528.65 611.17L520 611.17Z M528 625.17L536.65 625.17L536.65 611.17L528 611.17Z M536 625.17L544.65 625.17L544.65 611.17L536 611.17Z M544 625.17L552.65 625.17L552.65 611.17L544 611.17Z M552 625.17L560.65 625.17L560.65 611.17L552 611.17Z M560 625.17L568.65 625.17L568.65 611.17L560 611.17Z M568 625.17L576.65 625.17L576.65 614.67L568 614.67Z M576 625.17L581.41 625.17L581.41 611.17L576 611.17Z                                                         M232 641.17L234.17 641.17L234.17 627.17L232 627.17Z M240 641.17L248.65 641.17L248.65 634.17L240 634.17Z M248 641.17L256.65 641.17L256.65 627.17L248 627.17Z M256 641.17L264.65 641.17L264.65 627.17L256 627.17Z M264 641.17L272.65 641.17L272.65 627.17L264 627.17Z M272 641.17L280.65 641.17L280.65 627.17L272 627.17Z M280 641.17L288.65 641.17L288.65 627.17L280 627.17Z M288 641.17L296.65 641.17L296.65 627.17L288 627.17Z M296 641.17L304.65 641.17L304.65 627.17L296 627.17Z M304 641.17L312.65 641.17L312.65 627.17L304 627.17Z M312 641.17L320.65 641.17L320.65 628.92L312 628.92Z M320 641.17L328.65 641.17L328.65 627.17L320 627.17Z M328 641.17L336.65 641.17L336.65 628.92L328 628.92Z M336 641.17L344.65 641.17L344.65 639.42L336 639.42Z M344 641.17L350.49 641.17L350.49 627.17L344 627.17Z M352 641.17L359.57 641.17L359.57 627.17L352 627.17Z M360 641.17L368.65 641.17L368.65 634.17L360 634.17Z M368 641.17L376.65 641.17L376.65 627.17L368 627.17Z M376 641.17L384.65 641.17L384.65 627.17L376 627.17Z M384 641.17L392.65 641.17L392.65 627.17L384 627.17Z M392 641.17L400.65 641.17L400.65 627.17L392 627.17Z M400 641.17L408.65 641.17L408.65 627.17L400 627.17Z M408 641.17L416.65 641.17L416.65 627.17L408 627.17Z M416 641.17L424.65 641.17L424.65 627.17L416 627.17Z M424 641.17L432.65 641.17L432.65 627.17L424 627.17Z M432 641.17L440.65 641.17L440.65 627.17L432 627.17Z M440 641.17L448.65 641.17L448.65 627.17L440 627.17Z M448 641.17L456.65 641.17L456.65 627.17L448 627.17Z M456 641.17L464.65 641.17L464.65 627.17L456 627.17Z M464 641.17L472.65 641.17L472.65 627.17L464 627.17Z M472 641.17L480.65 641.17L480.65 627.17L472 627.17Z M480 641.17L488.65 641.17L488.65 627.17L480 627.17Z M488 641.17L496.65 641.17L496.65 627.17L488 627.17Z M496 641.17L504.65 641.17L504.65 627.17L496 627.17Z M504 641.17L512.65 641.17L512.65 627.17L504 627.17Z M512 641.17L520.65 641.17L520.65 627.17L512 627.17Z M520 641.17L528.65 641.17L528.65 627.17L520 627.17Z M528 641.17L536.65 641.17L536.65 627.17L528 627.17Z M536 641.17L544.65 641.17L544.65 627.17L536 627.17Z M544 641.17L552.65 641.17L552.65 627.17L544 627.17Z M552 641.17L560.65 641.17L560.65 628.92L552 628.92Z M560 641.17L567.57 641.17L567.57 627.17L560 627.17Z M568 641.17L569.08 641.17L569.08 627.17L568 627.17Z                                                            M248 657.17L251.25 657.17L251.25 643.17L248 643.17Z M256 657.17L264.65 657.17L264.65 650.17L256 650.17Z M264 657.17L272.65 657.17L272.65 643.17L264 643.17Z M272 657.17L280.65 657.17L280.65 643.17L272 643.17Z M280 657.17L288.65 657.17L288.65 643.17L280 643.17Z M288 657.17L296.65 657.17L296.65 643.17L288 643.17Z M296 657.17L304.65 657.17L304.65 643.17L296 643.17Z M304 657.17L312.65 657.17L312.65 643.17L304 643.17Z M312 657.17L320.65 657.17L320.65 643.17L312 643.17Z M320 657.17L328.65 657.17L328.65 644.92L320 644.92Z M328 657.17L336.65 657.17L336.65 643.17L328 643.17Z M336 657.17L344.65 657.17L344.65 644.92L336 644.92Z M344 657.17L352.65 657.17L352.65 643.17L344 643.17Z M352 657.17L360.65 657.17L360.65 643.17L352 643.17Z M360 657.17L368.65 657.17L368.65 643.17L360 643.17Z M368 657.17L376.65 657.17L376.65 643.17L368 643.17Z M376 657.17L384.65 657.17L384.65 643.17L376 643.17Z M384 657.17L392.65 657.17L392.65 643.17L384 643.17Z M392 657.17L400.65 657.17L400.65 643.17L392 643.17Z M400 657.17L408.65 657.17L408.65 643.17L400 643.17Z M408 657.17L416.65 657.17L416.65 643.17L408 643.17Z M416 657.17L424.65 657.17L424.65 643.17L416 643.17Z M424 657.17L432.65 657.17L432.65 643.17L424 643.17Z M432 657.17L440.65 657.17L440.65 643.17L432 643.17Z M440 657.17L448.65 657.17L448.65 643.17L440 643.17Z M448 657.17L456.65 657.17L456.65 643.17L448 643.17Z M456 657.17L464.65 657.17L464.65 643.17L456 643.17Z M464 657.17L472.65 657.17L472.65 643.17L464 643.17Z M472 657.17L480.65 657.17L480.65 643.17L472 643.17Z M480 657.17L488.65 657.17L488.65 643.17L480 643.17Z M488 657.17L496.65 657.17L496.65 643.17L488 643.17Z M496 657.17L504.65 657.17L504.65 643.17L496 643.17Z M504 657.17L512.65 657.17L512.65 643.17L504 643.17Z M512 657.17L520.65 657.17L520.65 643.17L512 643.17Z M520 657.17L528.65 657.17L528.65 643.17L520 643.17Z M528 657.17L536.65 657.17L536.65 643.17L528 643.17Z M536 657.17L544.65 657.17L544.65 643.17L536 643.17Z M544 657.17L552.65 657.17L552.65 653.67L544 653.67Z M552 657.17L553.08 657.17L553.08 643.17L552 643.17Z                                                                M264 673.17L267.25 673.17L267.25 659.17L264 659.17Z M272 673.17L280.65 673.17L280.65 667.92L272 667.92Z M280 673.17L288.65 673.17L288.65 660.92L280 660.92Z M288 673.17L296.65 673.17L296.65 659.17L288 659.17Z M296 673.17L304.65 673.17L304.65 659.17L296 659.17Z M304 673.17L312.65 673.17L312.65 659.17L304 659.17Z M312 673.17L320.65 673.17L320.65 659.17L312 659.17Z M320 673.17L328.65 673.17L328.65 659.17L320 659.17Z M328 673.17L336.65 673.17L336.65 659.17L328 659.17Z M336 673.17L344.65 673.17L344.65 659.17L336 659.17Z M344 673.17L352.65 673.17L352.65 659.17L344 659.17Z M352 673.17L360.65 673.17L360.65 660.92L352 660.92Z M360 673.17L368.65 673.17L368.65 659.17L360 659.17Z M368 673.17L376.65 673.17L376.65 659.17L368 659.17Z M376 673.17L384.65 673.17L384.65 659.17L376 659.17Z M384 673.17L392.65 673.17L392.65 659.17L384 659.17Z M392 673.17L400.65 673.17L400.65 659.17L392 659.17Z M400 673.17L408.65 673.17L408.65 659.17L400 659.17Z M408 673.17L416.65 673.17L416.65 659.17L408 659.17Z M416 673.17L424.65 673.17L424.65 659.17L416 659.17Z M424 673.17L432.65 673.17L432.65 659.17L424 659.17Z M432 673.17L440.65 673.17L440.65 659.17L432 659.17Z M440 673.17L448.65 673.17L448.65 659.17L440 659.17Z M448 673.17L456.65 673.17L456.65 659.17L448 659.17Z M456 673.17L464.65 673.17L464.65 659.17L456 659.17Z M464 673.17L472.65 673.17L472.65 659.17L464 659.17Z M472 673.17L480.65 673.17L480.65 659.17L472 659.17Z M480 673.17L488.65 673.17L488.65 659.17L480 659.17Z M488 673.17L496.65 673.17L496.65 659.17L488 659.17Z M496 673.17L504.65 673.17L504.65 659.17L496 659.17Z M504 673.17L512.65 673.17L512.65 659.17L504 659.17Z M512 673.17L520.65 673.17L520.65 659.17L512 659.17Z M520 673.17L528.65 673.17L528.65 660.92L520 660.92Z M528 673.17L536.65 673.17L536.65 671.42L528 671.42Z M536 673.17L538.17 673.17L538.17 659.17L536 659.17Z                                                                    M280 689.17L281.08 689.17L281.08 675.17L280 675.17Z M288 689.17L296.65 689.17L296.65 687.42L288 687.42Z M296 689.17L304.65 689.17L304.65 675.17L296 675.17Z M304 689.17L312.65 689.17L312.65 675.17L304 675.17Z M312 689.17L320.65 689.17L320.65 675.17L312 675.17Z M320 689.17L328.65 689.17L328.65 675.17L320 675.17Z M328 689.17L336.65 689.17L336.65 675.17L328 675.17Z M336 689.17L344.65 689.17L344.65 675.17L336 675.17Z M344 689.17L352.65 689.17L352.65 675.17L344 675.17Z M352 689.17L360.65 689.17L360.65 675.17L352 675.17Z M360 689.17L368.65 689.17L368.65 675.17L360 675.17Z M368 689.17L376.65 689.17L376.65 675.17L368 675.17Z M376 689.17L384.65 689.17L384.65 675.17L376 675.17Z M384 689.17L392.65 689.17L392.65 675.17L384 675.17Z M392 689.17L400.65 689.17L400.65 675.17L392 675.17Z M400 689.17L408.65 689.17L408.65 675.17L400 675.17Z M408 689.17L416.65 689.17L416.65 675.17L408 675.17Z M416 689.17L424.65 689.17L424.65 675.17L416 675.17Z M424 689.17L432.65 689.17L432.65 675.17L424 675.17Z M432 689.17L440.65 689.17L440.65 675.17L432 675.17Z M440 689.17L448.65 689.17L448.65 675.17L440 675.17Z M448 689.17L456.65 689.17L456.65 675.17L448 675.17Z M456 689.17L464.65 689.17L464.65 675.17L456 675.17Z M464 689.17L472.65 689.17L472.65 675.17L464 675.17Z M472 689.17L480.65 689.17L480.65 675.17L472 675.17Z M480 689.17L488.65 689.17L488.65 675.17L480 675.17Z M488 689.17L496.65 689.17L496.65 675.17L488 675.17Z M496 689.17L504.65 689.17L504.65 675.17L496 675.17Z M504 689.17L512.65 689.17L512.65 676.92L504 676.92Z M512 689.17L520.65 689.17L520.65 687.42L512 687.42Z M520 689.17L521.08 689.17L521.08 675.17L520 675.17Z                                                                        M296 705.17L297.08 705.17L297.08 691.17L296 691.17Z M304 705.17L310.49 705.17L310.49 691.17L304 691.17Z M312 705.17L320.65 705.17L320.65 694.67L312 694.67Z M320 705.17L328.65 705.17L328.65 691.17L320 691.17Z M328 705.17L336.65 705.17L336.65 691.17L328 691.17Z M336 705.17L344.65 705.17L344.65 691.17L336 691.17Z M344 705.17L352.65 705.17L352.65 691.17L344 691.17Z M352 705.17L360.65 705.17L360.65 691.17L352 691.17Z M360 705.17L368.65 705.17L368.65 691.17L360 691.17Z M368 705.17L376.65 705.17L376.65 691.17L368 691.17Z M376 705.17L384.65 705.17L384.65 691.17L376 691.17Z M384 705.17L392.65 705.17L392.65 691.17L384 691.17Z M392 705.17L400.65 705.17L400.65 691.17L392 691.17Z M400 705.17L408.65 705.17L408.65 691.17L400 691.17Z M408 705.17L416.65 705.17L416.65 691.17L408 691.17Z M416 705.17L424.65 705.17L424.65 691.17L416 691.17Z M424 705.17L432.65 705.17L432.65 691.17L424 691.17Z M432 705.17L440.65 705.17L440.65 691.17L432 691.17Z M440 705.17L448.65 705.17L448.65 691.17L440 691.17Z M448 705.17L456.65 705.17L456.65 691.17L448 691.17Z M456 705.17L464.65 705.17L464.65 691.17L456 691.17Z M464 705.17L472.65 705.17L472.65 691.17L464 691.17Z M472 705.17L480.65 705.17L480.65 691.17L472 691.17Z M480 705.17L488.65 705.17L488.65 691.17L480 691.17Z M488 705.17L496.65 705.17L496.65 696.42L488 696.42Z M496 705.17L501.41 705.17L501.41 691.17L496 691.17Z M504 705.17L505.08 705.17L505.08 691.17L504 691.17Z                                                                             M320 721.17L322.17 721.17L322.17 707.17L320 707.17Z M328 721.17L333.41 721.17L333.41 707.17L328 707.17Z M336 721.17L343.57 721.17L343.57 707.17L336 707.17Z M344 721.17L352.65 721.17L352.65 714.17L344 714.17Z M352 721.17L360.65 721.17L360.65 712.42L352 712.42Z M360 721.17L368.65 721.17L368.65 710.67L360 710.67Z M368 721.17L376.65 721.17L376.65 712.42L368 712.42Z M376 721.17L384.65 721.17L384.65 710.67L376 710.67Z M384 721.17L392.65 721.17L392.65 708.92L384 708.92Z M392 721.17L400.65 721.17L400.65 707.17L392 707.17Z M400 721.17L408.65 721.17L408.65 707.17L400 707.17Z M408 721.17L416.65 721.17L416.65 707.17L408 707.17Z M416 721.17L424.65 721.17L424.65 708.92L416 708.92Z M424 721.17L432.65 721.17L432.65 712.42L424 712.42Z M432 721.17L440.65 721.17L440.65 712.42L432 712.42Z M440 721.17L448.65 721.17L448.65 712.42L440 712.42Z M448 721.17L456.65 721.17L456.65 710.67L448 710.67Z M456 721.17L464.65 721.17L464.65 715.92L456 715.92Z M464 721.17L471.57 721.17L471.57 707.17L464 707.17Z M472 721.17L478.49 721.17L478.49 707.17L472 707.17Z M480 721.17L482.17 721.17L482.17 707.17L480 707.17Z                                                                                         M392 737.17L393.08 737.17L393.08 723.17L392 723.17Z M400 737.17L401.08 737.17L401.08 723.17L400 723.17Z M408 737.17L409.08 737.17L409.08 723.17L408 723.17Z    M440 737.17L441.08 737.17L441.08 723.17L440 723.17Z                                                                                                                                                                                                                                                                                                                                                                                                                                                             " fill="#000000"/>
  </svg>